<?xml version="1.0" encoding="UTF-8" standalone="no"?>
<!DOCTYPE svg PUBLIC "-//W3C//DTD SVG 1.1//EN" "http://www.w3.org/Graphics/SVG/1.1/DTD/svg11.dtd">
<svg width="100%" height="100%" viewBox="0 0 618 568" version="1.1" xmlns="http://www.w3.org/2000/svg" xmlns:xlink="http://www.w3.org/1999/xlink" xml:space="preserve" xmlns:serif="http://www.serif.com/" style="fill-rule:evenodd;clip-rule:evenodd;stroke-linejoin:round;stroke-miterlimit:2;">
    <g transform="matrix(1,0,0,1,-463.258,0)">
        <g transform="matrix(0.804451,0,0,0.738962,463.258,0)">
            <rect id="Archive" x="0" y="0" width="768" height="768" style="fill:none;"/>
            <g id="Archive1" serif:id="Archive">
                <g transform="matrix(1.05812,0,0,0.893313,-30.3067,-26.5132)">
                    <g id="Archive2" serif:id="Archive">
                        <path id="Paper" d="M729.163,58.171C729.292,54.337 728.2,50.602 726.141,47.832C724.083,45.061 721.235,43.495 718.26,43.497C636.409,43.548 139.045,43.855 58.604,43.905C55.698,43.907 52.912,45.404 50.865,48.064C48.818,50.724 47.679,54.327 47.701,58.075C47.978,106.614 48.873,263.274 48.873,263.274L39.05,408.027L38.572,577.11C38.572,577.11 55.373,691.361 60.726,727.759C61.673,734.196 65.941,738.938 71.018,739.194C132.971,742.315 505.825,761.097 505.825,761.097C505.825,761.097 687.728,754.313 733.579,752.602C739.398,752.385 744.06,746.314 744.17,738.808C744.732,700.484 746.305,593.202 746.305,593.202L723.213,235.586C723.213,235.586 727.657,103.082 729.163,58.171Z" style="fill:rgb(216,213,204);"/>
                        <clipPath id="_clip1">
                            <path id="Paper1" serif:id="Paper" d="M729.163,58.171C729.292,54.337 728.2,50.602 726.141,47.832C724.083,45.061 721.235,43.495 718.26,43.497C636.409,43.548 139.045,43.855 58.604,43.905C55.698,43.907 52.912,45.404 50.865,48.064C48.818,50.724 47.679,54.327 47.701,58.075C47.978,106.614 48.873,263.274 48.873,263.274L39.05,408.027L38.572,577.11C38.572,577.11 55.373,691.361 60.726,727.759C61.673,734.196 65.941,738.938 71.018,739.194C132.971,742.315 505.825,761.097 505.825,761.097C505.825,761.097 687.728,754.313 733.579,752.602C739.398,752.385 744.06,746.314 744.17,738.808C744.732,700.484 746.305,593.202 746.305,593.202L723.213,235.586C723.213,235.586 727.657,103.082 729.163,58.171Z"/>
                        </clipPath>
                        <g clip-path="url(#_clip1)">
                            <g transform="matrix(1,0,0,1,4.53692,8.84117)">
                                <path d="M43.083,35.071L44.336,254.433L718.676,226.745L725.119,34.649L43.083,35.071Z" style="fill:rgb(216,213,204);"/>
                            </g>
                            <g transform="matrix(2.86245,0,0,2.95423,-1249.15,-1755.3)">
                                <path d="M653.927,562.212C677.257,562.212 736.536,640.527 724.578,652.247C681.109,694.855 673.305,629.882 649.975,629.882C626.645,629.882 611.656,612.811 611.656,594.816C611.656,576.822 630.597,562.212 653.927,562.212Z" style="fill:rgb(105,21,0);fill-opacity:0.15;"/>
                            </g>
                            <g transform="matrix(1,0,0,1,4.53692,8.84117)">
                                <path d="M44.336,254.433L718.676,226.745L741.768,584.361L34.513,399.186L44.336,254.433Z" style="fill:rgb(230,228,220);"/>
                            </g>
                            <g transform="matrix(1.28543,0,0,1.1473,-3.82051,4.15934)">
                                <path d="M32.979,499.392L396.477,659.758L51.472,640.286L32.979,499.392Z" style="fill:rgb(207,204,194);"/>
                            </g>
                            <g transform="matrix(1,0,0,1,4.53692,8.84117)">
                                <g transform="matrix(0.843255,0,0,1.07715,-239.728,91.018)">
                                    <ellipse cx="653.927" cy="594.816" rx="42.271" ry="32.604" style="fill:rgb(105,21,0);fill-opacity:0.15;"/>
                                </g>
                                <g transform="matrix(1.26371,0.27732,-0.235319,1.48927,-399.194,-382.527)">
                                    <path d="M942.368,465.495C942.368,465.495 899.211,373.455 789.434,459.189C740.47,497.429 640.859,474.233 646.969,541.108C652.191,598.268 768.288,578.954 768.288,578.954L942.368,465.495Z" style="fill:rgb(105,21,0);fill-opacity:0.15;fill-rule:nonzero;"/>
                                </g>
                            </g>
                            <g transform="matrix(1.80281,0,0,1.30225,-799.157,-106.988)">
                                <rect x="456.982" y="154.794" width="317.521" height="56.033" style="fill:rgb(90,62,55);fill-opacity:0.75;"/>
                            </g>
                            <g transform="matrix(1.28543,-1.07099,0,1.51487,-567.781,686.377)">
                                <path d="M732.45,473.505C732.45,473.505 631.177,535.902 665.255,606.025C699.334,676.148 753.073,671.561 774.7,673.527C796.326,675.493 732.45,473.505 732.45,473.505Z" style="fill-opacity:0.15;fill-rule:nonzero;"/>
                            </g>
                        </g>
                    </g>
                </g>
                <g id="Soda-Can" serif:id="Soda Can" transform="matrix(0.274025,1.19866,-1.2567,0.340471,1163.66,-177.982)">
                    <g transform="matrix(1.09555,-5.83757e-17,2.46519e-32,0.959886,704.265,250.255)">
                        <path d="M-294.597,195.796C-286.27,190.714 -273.753,190.055 -259.236,213.841C-244.718,237.627 -252.4,246.206 -260.727,251.288C-269.054,256.371 -281.63,257.823 -296.558,233.366C-311.485,208.909 -302.924,200.879 -294.597,195.796ZM-292.731,200.578C-299.369,204.613 -301.865,212.647 -298.302,218.509C-294.74,224.37 -289.784,221.287 -283.146,217.253C-276.509,213.219 -270.687,209.752 -274.25,203.89C-277.812,198.028 -286.093,196.544 -292.731,200.578ZM-278.974,221.047C-284.007,224.106 -285.201,231.348 -281.639,237.21C-278.076,243.072 -274.325,240.722 -269.292,237.663C-264.259,234.603 -259.836,231.987 -263.399,226.125C-266.961,220.263 -273.94,217.987 -278.974,221.047Z" style="fill:rgb(206,206,206);"/>
                    </g>
                    <g transform="matrix(0.974869,-6.16298e-33,0,1,11.85,0)">
                        <g transform="matrix(1.06543,-1.10688e-16,0,1,102.47,306.864)">
                            <ellipse cx="346.397" cy="433.71" rx="90.488" ry="22.908" style="fill:rgb(192,192,192);"/>
                        </g>
                        <g transform="matrix(1.13028,-2.3906e-16,-1.06327e-16,1.06087,80.0036,274.189)">
                            <ellipse cx="346.397" cy="433.71" rx="90.488" ry="22.908" style="fill:rgb(189,72,56);"/>
                        </g>
                    </g>
                    <g transform="matrix(0.898672,-0.331045,0.442352,0.921839,-179.449,206.479)">
                        <g transform="matrix(1.06543,0,0,-1,102.47,892.664)">
                            <ellipse cx="346.397" cy="433.71" rx="90.488" ry="22.908" style="fill:rgb(192,192,192);"/>
                        </g>
                        <g transform="matrix(1.13028,1.21634e-16,-1.06327e-16,-1.06087,80.0036,925.338)">
                            <ellipse cx="346.397" cy="433.71" rx="90.488" ry="22.908" style="fill:rgb(189,72,56);"/>
                        </g>
                        <g transform="matrix(1.03596,0.372026,-0.435553,0.88486,439.573,206.001)">
                            <path d="M76.47,335.914L49.823,294.818L49.431,275.099L214.677,205.989L229.312,220.898L229.27,220.92L238.22,347.323L227.578,384.534L247.472,466.744L247.784,482.397L240.228,501.419L60.513,501.033L53.11,482.397L66.381,343.504L76.47,335.914Z" style="fill:rgb(189,72,56);"/>
                            <clipPath id="_clip2">
                                <path d="M76.47,335.914L49.823,294.818L49.431,275.099L214.677,205.989L229.312,220.898L229.27,220.92L238.22,347.323L227.578,384.534L247.472,466.744L247.784,482.397L240.228,501.419L60.513,501.033L53.11,482.397L66.381,343.504L76.47,335.914Z"/>
                            </clipPath>
                            <g clip-path="url(#_clip2)">
                                <g transform="matrix(0.889843,1.03512e-16,0,1.07455,-268.099,-293.627)">
                                    <g transform="matrix(1.12379,-5.65959e-17,0,0.93062,718.65,271.119)">
                                        <g id="Barcode">
                                            <g transform="matrix(0.978628,0,0,1,-359.848,0.630061)">
                                                <path d="M215.255,439.06C190.766,442.624 166.649,442.812 141.942,442.812C141.942,456.007 141.942,469.202 141.942,482.397C166.773,482.397 190.755,482.236 215.255,477.826C215.255,464.904 215.255,451.982 215.255,439.06Z" style="fill:white;"/>
                                            </g>
                                            <g transform="matrix(0.0678041,0,0,0.871344,-230.564,60.1468)">
                                                <rect x="141.942" y="441.901" width="82.431" height="39.585" style="fill:rgb(39,5,0);"/>
                                            </g>
                                            <g transform="matrix(0.0678041,0,0,0.871344,-187.452,60.1468)">
                                                <path d="M183.233,441.186C161.256,441.311 139.278,441.418 117.3,441.508C116.965,454.672 116.767,467.839 116.582,481.005C138.431,480.899 160.28,480.772 182.128,480.623C182.412,467.476 182.718,454.327 183.233,441.186Z" style="fill:rgb(39,5,0);"/>
                                            </g>
                                            <g transform="matrix(0.0678041,0,0,0.871344,-210.327,60.1468)">
                                                <rect x="141.942" y="441.901" width="82.431" height="39.585" style="fill:rgb(39,5,0);"/>
                                            </g>
                                            <g transform="matrix(0.0678041,0,0,0.871344,-195.957,60.1468)">
                                                <path d="M207.131,441.638C183.326,441.715 159.521,441.773 135.716,441.815C135.623,455.001 135.568,468.187 135.517,481.374C159.215,481.323 182.913,481.253 206.61,481.161C206.745,467.986 206.888,454.811 207.131,441.638Z" style="fill:rgb(39,5,0);"/>
                                            </g>
                                            <g transform="matrix(0.0357991,0,0,0.871344,-217.517,60.1468)">
                                                <rect x="141.942" y="441.901" width="82.431" height="39.585" style="fill:rgb(39,5,0);"/>
                                            </g>
                                            <g transform="matrix(0.0357991,0,0,0.871344,-211.651,60.1468)">
                                                <rect x="141.942" y="441.901" width="82.431" height="39.585" style="fill:rgb(39,5,0);"/>
                                            </g>
                                            <g transform="matrix(0.0357991,0,0,0.871344,-174.405,60.1468)">
                                                <path d="M109.81,440.749C88.582,440.831 67.354,440.909 46.126,440.982C44.99,454.089 44.31,467.238 43.682,480.378C64.807,480.291 85.933,480.198 107.058,480.1C107.764,466.973 108.532,453.835 109.81,440.749Z" style="fill:rgb(39,5,0);"/>
                                            </g>
                                            <g transform="matrix(0.0357991,0,0,0.871344,-154.168,60.1468)">
                                                <path d="M-6.19,438.465C-29.319,438.602 -52.448,438.738 -75.578,438.871C-76.714,451.833 -77.405,464.836 -78.031,477.831C-54.701,477.669 -31.372,477.503 -8.043,477.335C-7.571,464.373 -7.049,451.407 -6.19,438.465Z" style="fill:rgb(39,5,0);"/>
                                            </g>
                                            <g transform="matrix(0.0357991,0,0,0.871344,-148.302,60.1468)">
                                                <path d="M-24.915,437.584C-49.692,437.736 -74.47,437.888 -99.247,438.039C-99.734,450.959 -100.03,463.886 -100.296,476.812C-75.169,476.627 -50.042,476.44 -24.915,476.251C-24.915,463.362 -24.915,450.473 -24.915,437.584Z" style="fill:rgb(39,5,0);"/>
                                            </g>
                                            <g transform="matrix(0.0357991,0,0,0.871344,-197.28,60.1468)">
                                                <path d="M219.645,441.869C193.501,441.883 167.358,441.892 141.215,441.897C141.204,455.091 141.197,468.284 141.191,481.478C167.29,481.471 193.39,481.459 219.489,481.441C219.529,468.25 219.572,455.06 219.645,441.869Z" style="fill:rgb(39,5,0);"/>
                                            </g>
                                            <g transform="matrix(0.0678041,0,0,0.871344,-167.216,60.1468)">
                                                <path d="M117.331,439.248C95.536,439.477 73.74,439.697 51.944,439.903C51.167,452.952 50.699,466.02 50.271,479.084C72.122,478.834 93.973,478.568 115.824,478.291C116.209,465.273 116.632,452.253 117.331,439.248Z" style="fill:rgb(39,5,0);"/>
                                            </g>
                                            <g transform="matrix(0.0357991,0,0,0.871344,-168.539,60.1468)">
                                                <path d="M72.122,440.209C50.947,440.307 29.772,440.402 8.597,440.493C7.211,453.557 6.376,466.681 5.61,479.794C26.737,479.685 47.863,479.571 68.989,479.452C69.791,466.358 70.67,453.25 72.122,440.209Z" style="fill:rgb(39,5,0);"/>
                                            </g>
                                        </g>
                                    </g>
                                    <g transform="matrix(1.12379,-5.65959e-17,-3.11915e-17,0.93062,301.288,273.255)">
                                        <path d="M86.825,317.443C87.13,320.027 87.437,322.61 87.746,325.193C87.898,326.459 87.978,327.733 87.981,329.008C87.984,330.19 87.706,331.378 87.111,332.404C86.42,333.594 85.118,334.266 83.855,334.682C82.798,335.031 81.424,335.344 80.458,334.592C79.626,333.944 79.176,332.936 78.945,331.932C78.663,330.705 78.454,329.461 78.311,328.21C76.608,313.22 74.891,298.231 73.117,283.249C72.967,281.984 72.889,280.709 72.885,279.435C72.883,278.254 73.156,277.066 73.746,276.039C74.429,274.851 75.722,274.176 76.978,273.76C79.031,273.08 81.081,272.388 83.134,271.708C84.566,271.234 86.12,271.319 87.569,271.668C89.473,272.126 91.182,273.176 92.688,274.399C94.673,276.01 96.233,278.085 97.51,280.284C99.198,283.192 100.103,286.488 100.602,289.793C100.988,292.346 101.09,294.947 100.822,297.516C100.571,299.912 99.995,302.276 99.094,304.511C98.471,306.056 97.709,307.544 96.824,308.955C98.575,310.771 100.344,312.571 102.058,314.42C103.312,315.773 105.314,317.356 106.056,319.11C106.519,320.206 106.554,321.442 106.169,322.566C105.631,324.135 104.667,325.515 103.696,326.842C102.67,328.226 101.182,330.581 99.15,330.451C97.864,330.368 96.236,328.128 95.454,327.301C92.477,324.152 89.504,320.878 86.825,317.443ZM84.887,300.883C85.41,300.713 85.932,300.543 86.456,300.375C86.869,300.241 87.228,299.977 87.56,299.705C88.039,299.313 88.404,298.8 88.7,298.261C89.086,297.554 89.317,296.774 89.47,295.987C89.674,294.94 89.637,293.863 89.508,292.81C89.376,291.735 89.1,290.661 88.565,289.712C88.156,288.987 87.609,288.31 86.875,287.896C86.263,287.551 85.535,287.468 84.866,287.687C84.384,287.845 83.903,288.003 83.422,288.162C83.908,292.403 84.396,296.643 84.887,300.883ZM121.415,325.459C119.549,325.823 117.416,326.187 115.61,325.368C114.446,324.841 113.485,323.908 113.017,322.709C112.547,321.505 112.194,320.256 111.955,318.986C109.131,304.006 106.519,288.986 104.082,273.939C103.737,271.813 103.397,269.309 104.561,267.361C105.665,265.514 107.961,264.828 109.939,264.416C115.863,263.18 121.815,262.078 127.755,260.922C129.025,260.675 130.318,260.532 131.613,260.533C132.876,260.534 134.061,261.099 134.966,261.96C136.423,263.348 136.876,265.503 137.244,267.395C137.608,269.262 137.972,271.395 137.153,273.201C136.632,274.352 135.721,275.316 134.537,275.79C133.321,276.276 132.056,276.634 130.771,276.884L120.664,278.852L122.173,286.606L126.965,285.674C128.162,285.441 129.377,285.284 130.597,285.283C131.672,285.283 132.692,285.742 133.455,286.491C134.685,287.699 135.048,289.566 135.363,291.183C135.672,292.77 135.977,294.568 135.329,296.119C134.904,297.136 134.085,297.948 133.045,298.327C131.873,298.753 130.661,299.062 129.437,299.3L124.819,300.199L126.328,307.954L136.523,305.97C137.793,305.722 139.086,305.58 140.381,305.58C141.643,305.581 142.829,306.147 143.733,307.008C145.19,308.395 145.644,310.551 146.012,312.443C146.375,314.309 146.739,316.442 145.921,318.248C145.399,319.399 144.489,320.364 143.305,320.837C142.089,321.323 140.824,321.682 139.539,321.932L121.415,325.459ZM161.566,317.554C159.752,317.907 157.705,318.234 155.944,317.473C154.781,316.971 153.802,316.078 153.276,314.917C152.721,313.694 152.334,312.399 152.077,311.081L143.31,266.034C143.068,264.792 142.937,263.528 142.937,262.263C142.938,261 143.504,259.815 144.365,258.91C145.752,257.453 147.908,257 149.799,256.632L159.558,254.732C163.254,254.013 167.136,253.932 170.777,254.99C174.064,255.946 177.116,257.671 179.621,260.006C182.278,262.483 184.387,265.507 185.982,268.761C187.747,272.362 188.97,276.216 189.736,280.149C190.518,284.167 190.854,288.285 190.578,292.374C190.33,296.043 189.522,299.694 187.999,303.05C186.566,306.206 184.378,309.001 181.663,311.156C178.632,313.561 174.921,314.955 171.151,315.689L161.566,317.554ZM166.479,300.049L168.309,299.693C170.321,299.301 172.495,298.481 173.591,296.63C174.595,294.933 174.886,292.914 174.795,290.969C174.68,288.493 174.332,286.032 173.858,283.601C173.383,281.155 172.79,278.73 171.998,276.366C171.375,274.505 170.348,272.716 168.75,271.527C166.992,270.219 164.624,270.295 162.575,270.694L160.832,271.034L166.479,300.049Z" style="fill:white;"/>
                                    </g>
                                    <g transform="matrix(1.08851,-8.06491e-17,0,0.93062,292.866,273.255)">
                                        <clipPath id="_clip3">
                                            <path d="M265.19,336.714C191.6,336.714 118.013,336.257 44.423,336.257C44.424,370.354 45.955,404.44 45.955,438.538C92.531,438.538 139.103,438.042 185.677,437.8C212.18,437.663 239.605,436.051 265.758,439.637C268.937,405.341 265.228,371.029 265.19,336.714Z"/>
                                        </clipPath>
                                        <g clip-path="url(#_clip3)">
                                            <path d="M65.075,437.977C63.445,438.511 61.377,438.93 59.857,437.857C58.576,436.952 57.789,435.507 57.396,434.014C56.935,432.26 56.579,430.477 56.333,428.68C53.471,407.774 49.353,387.065 45.23,366.379C44.882,364.633 44.68,362.856 44.644,361.075C44.609,359.335 45.272,357.653 46.384,356.326C47.938,354.47 50.474,353.687 52.73,353.126C56.195,352.264 59.637,351.312 63.057,350.286C65.181,349.648 67.464,349.717 69.605,350.237C72.233,350.875 74.571,352.355 76.615,354.085C79.291,356.35 81.352,359.253 83.051,362.298C85.307,366.34 86.561,370.862 87.292,375.411C88.037,380.055 88.188,384.84 87.232,389.465C86.438,393.308 85.135,397.063 83.182,400.474C81.594,403.248 79.734,405.898 77.404,408.102C75.691,409.724 73.757,411.219 71.488,411.957C70.824,412.173 70.16,412.388 69.496,412.603C69.97,416.511 70.413,420.424 70.814,424.341C70.999,426.145 71.075,427.959 71.042,429.771C71.01,431.474 70.596,433.177 69.748,434.66C68.76,436.385 66.904,437.378 65.075,437.977ZM66.551,390.62C67.256,390.403 67.959,390.185 68.663,389.964C69.501,389.702 70.182,389.101 70.785,388.486C71.7,387.552 72.243,386.33 72.629,385.099C73.193,383.305 73.114,381.381 72.856,379.542C72.648,378.061 72.245,376.588 71.486,375.29C70.898,374.284 70.117,373.355 69.079,372.794C68.162,372.297 67.077,372.228 66.086,372.531C65.39,372.744 64.693,372.955 63.995,373.163C64.854,378.981 65.717,384.799 66.551,390.62ZM134.319,422.174C129.693,423.087 124.843,423.188 120.27,421.933C115.955,420.749 112.016,418.425 108.731,415.406C105.035,412.009 102.193,407.771 100.125,403.213C97.617,397.686 96.097,391.764 95.023,385.807C93.91,379.636 93.249,373.359 93.462,367.083C93.635,361.971 94.354,356.825 96.191,352.028C97.783,347.872 100.328,344.049 103.837,341.272C107.58,338.309 112.169,336.514 116.833,335.635C121.605,334.735 126.592,334.755 131.279,336.106C135.709,337.382 139.739,339.9 143.047,343.088C146.799,346.705 149.704,351.121 152.017,355.771C154.801,361.368 156.694,367.374 158.011,373.474C159.302,379.455 160.068,385.598 159.637,391.722C159.282,396.749 158.141,401.745 155.88,406.271C153.848,410.338 150.881,413.939 147.225,416.65C143.429,419.465 138.94,421.262 134.319,422.174ZM130.049,400.247C131.307,400.009 132.393,399.235 133.117,398.191C134.055,396.837 134.536,395.23 134.838,393.627C135.261,391.388 135.257,389.094 135.087,386.829C134.862,383.832 134.356,380.863 133.729,377.926C133.098,374.965 132.34,372.026 131.338,369.168C130.565,366.964 129.653,364.796 128.428,362.802C127.549,361.371 126.502,359.988 125.095,359.037C124.028,358.317 122.722,357.968 121.444,358.204C120.181,358.437 119.097,359.218 118.385,360.275C117.453,361.659 117.035,363.313 116.797,364.945C116.464,367.235 116.507,369.563 116.697,371.864C116.946,374.877 117.465,377.861 118.098,380.815C118.731,383.766 119.481,386.698 120.472,389.551C121.222,391.711 122.103,393.842 123.311,395.79C124.171,397.177 125.197,398.509 126.566,399.427C127.585,400.11 128.825,400.479 130.049,400.247ZM188.225,410.439C185.459,410.942 182.255,411.506 179.557,410.361C177.919,409.667 176.53,408.411 175.884,406.73C175.253,405.088 174.776,403.386 174.459,401.656C170.684,381.02 165.287,360.717 161.983,339.99C161.897,339.453 166.995,339.797 167.116,339.804C172.217,340.108 177.305,340.682 182.375,341.302C191.663,342.438 200.994,343.732 210.128,345.795C211.373,346.076 219.18,347.178 219.499,349.434C220.162,354.112 220.444,358.911 219.699,363.599C219.097,367.389 218.01,371.154 215.991,374.446C214.19,377.383 211.817,379.975 208.919,381.857C206.053,383.718 202.808,384.984 199.444,385.579C198.27,385.786 197.097,385.994 195.923,386.202C196.785,389.947 197.622,393.698 198.405,397.46C198.758,399.157 198.928,400.893 198.891,402.627C198.853,404.437 197.891,406.07 196.582,407.269C194.355,409.309 191.082,409.919 188.225,410.439ZM190.905,364.68C192.099,364.465 193.293,364.25 194.487,364.035C195.792,363.799 197.012,363.233 198.15,362.569C199.511,361.774 200.594,360.576 201.33,359.189C202.237,357.477 202.17,355.438 201.795,353.591C201.471,351.993 200.764,350.463 199.647,349.264C198.557,348.094 197.171,347.21 195.656,346.701C194.054,346.164 192.32,346.112 190.666,346.419C189.521,346.632 188.376,346.845 187.231,347.058C188.327,352.958 189.579,358.828 190.905,364.68ZM233.569,369.704C232.286,370.139 230.659,370.464 229.471,369.599C228.434,368.844 227.799,367.686 227.445,366.476C227.014,365.006 226.683,363.507 226.434,361.996C224.782,351.997 235.379,346.53 237.465,358.338C237.738,359.882 237.942,361.439 238.055,363.003C238.154,364.381 237.939,365.793 237.285,367.021C236.54,368.421 235.012,369.215 233.569,369.704ZM238.651,398.432C236.908,398.976 234.834,398.954 233.54,397.486C231.587,395.27 231.268,392.065 230.823,389.286C230.457,387.006 230.168,384.687 230.333,382.374C230.437,380.906 230.737,379.379 231.639,378.177C232.421,377.134 233.568,376.417 234.794,376.009C236.543,375.427 238.513,375.654 239.813,377.05C241.91,379.3 242.474,382.509 243.059,385.407C243.504,387.613 243.849,389.876 243.663,392.132C243.541,393.611 243.141,395.111 242.158,396.26C241.249,397.323 239.972,398.02 238.651,398.432Z" style="fill:none;stroke:white;stroke-width:2.03px;"/>
                                        </g>
                                    </g>
                                    <g transform="matrix(1.12379,-8.24258e-17,0,0.93062,301.288,273.255)">
                                        <clipPath id="_clip4">
                                            <rect x="45.955" y="312.592" width="194.548" height="35.54"/>
                                        </clipPath>
                                        <g clip-path="url(#_clip4)">
                                            <path d="M156.525,410.237C154.699,414.431 157.109,368.718 158.361,375.155C159.613,381.588 160.322,388.18 159.941,394.737C159.633,400.035 158.651,405.352 156.525,410.237ZM188.535,414.838C185.889,415.353 182.666,415.866 180.107,414.706C178.395,413.93 177.031,412.605 176.336,410.845C175.645,409.097 175.118,407.286 174.759,405.441L162.055,340.17C161.7,338.346 161.51,336.491 161.502,334.632C161.495,332.76 162.282,331.047 163.562,329.702C165.524,327.642 168.777,326.915 171.452,326.394L186.505,323.464C190.046,322.775 193.704,322.882 197.259,323.406C201.108,323.974 204.825,325.24 208.102,327.359C211.357,329.464 213.837,332.504 215.668,335.89C217.954,340.117 218.96,344.965 219.527,349.695C220.12,354.635 220.193,359.696 219.292,364.605C218.549,368.653 217.337,372.679 215.25,376.249C213.44,379.343 211.121,382.154 208.193,384.25C205.44,386.22 202.31,387.607 198.984,388.254L195.568,388.919L197.932,401.062C198.287,402.886 198.477,404.742 198.485,406.6C198.492,408.473 197.705,410.185 196.425,411.53C194.463,413.591 191.21,414.317 188.535,414.838ZM191.063,365.77L194.605,365.081C195.906,364.828 197.123,364.216 198.24,363.52C199.63,362.653 200.693,361.387 201.435,359.935C202.357,358.13 202.328,355.997 201.969,354.05C201.664,352.393 200.983,350.813 199.851,349.552C198.77,348.349 197.391,347.44 195.861,346.916C194.259,346.367 192.539,346.315 190.884,346.637L187.468,347.302L191.063,365.77ZM232.327,371.147C231.114,371.601 229.511,371.966 228.42,371.032C227.43,370.185 226.914,368.926 226.648,367.679C226.312,366.099 226.069,364.501 225.9,362.895C224.591,350.451 223.243,338.011 221.83,325.579C221.64,323.913 221.537,322.237 221.527,320.56C221.517,319.001 221.851,317.452 222.583,316.07C223.382,314.562 224.914,313.628 226.475,313.061C227.709,312.613 229.385,312.211 230.461,313.227C231.442,314.153 231.924,315.489 232.184,316.782C232.512,318.405 232.754,320.045 232.922,321.693C234.185,334.133 235.462,346.573 236.781,359.008C236.955,360.654 237.052,362.309 237.056,363.964C237.061,365.454 236.758,366.945 236.05,368.264C235.279,369.7 233.813,370.591 232.327,371.147ZM235.582,402.24C233.877,402.86 232.075,402.769 230.934,401.208C229.188,398.82 228.955,395.163 228.667,392.34C228.414,389.861 228.251,387.331 228.521,384.845C228.692,383.272 229.05,381.612 229.979,380.298C230.746,379.211 231.842,378.416 233.087,377.953C234.815,377.309 236.592,377.539 237.736,379.084C239.55,381.533 239.859,385.244 240.188,388.155C240.461,390.564 240.64,393.029 240.365,395.448C240.188,397.008 239.787,398.631 238.828,399.907C238.01,400.996 236.857,401.776 235.582,402.24Z" style="fill:none;stroke:white;stroke-width:2px;"/>
                                        </g>
                                    </g>
                                </g>
                                <path d="M48.877,295.224L239.637,347.769L228.714,384.954L76.468,336.048L48.877,295.224Z" style="fill:rgb(161,61,48);"/>
                                <clipPath id="_clip5">
                                    <path d="M48.877,295.224L239.637,347.769L228.714,384.954L76.468,336.048L48.877,295.224Z"/>
                                </clipPath>
                                <g clip-path="url(#_clip5)">
                                    <g>
                                        <path d="M143.222,320.805C142.049,321.229 140.841,321.556 139.615,321.787C133.797,322.883 127.97,323.936 122.115,324.813C120.358,325.076 118.473,325.2 116.873,324.286C115.743,323.641 114.807,322.65 114.242,321.476C113.687,320.323 113.2,319.137 112.798,317.922C111.995,315.492 111.465,313.991 110.594,311.585C121.459,314.696 132.272,318.001 143.222,320.805ZM97.684,307.997C97.625,308.165 97.564,308.332 97.499,308.497C100.654,311.103 105.48,314.064 107.571,317.694C108.111,318.631 108.372,319.739 108.186,320.814C107.952,322.164 107.318,323.393 106.671,324.584C106.049,325.707 105.038,327.973 103.359,327.571C101.986,327.242 100.5,324.914 99.604,323.981C96.611,320.865 93.503,317.876 90.251,315.03C91.103,317.187 91.807,319.078 92.573,321.271C92.954,322.361 93.266,323.475 93.517,324.603C93.741,325.609 93.784,326.692 93.475,327.686C93.158,328.705 92.198,329.238 91.206,329.451C90.124,329.684 89.065,329.505 88.231,328.756C87.361,327.974 86.707,326.965 86.211,325.912C85.694,324.814 85.206,323.703 84.764,322.572C82.046,315.621 78.722,308.961 75.346,302.311C82.807,304.148 90.263,306.005 97.684,307.997Z" style="fill:rgb(200,200,200);"/>
                                    </g>
                                    <g transform="matrix(1,0,0,1,1.19843,0.762639)">
                                        <path d="M-7.228,427.893C-9.083,428.379 -11.418,428.782 -13.142,427.659C-14.479,426.788 -15.351,425.368 -15.632,423.805C-15.942,422.079 -16.014,420.314 -15.845,418.569C-13.669,396.103 4.593,378.622 18.008,361.985C19.298,360.385 20.663,358.846 22.078,357.355C23.671,355.675 25.584,354.293 27.585,353.14C30.162,351.653 33.023,350.788 35.916,350.158C39.863,349.299 43.8,348.389 47.726,347.436C49.796,346.934 52.001,346.772 54.083,347.303C55.941,347.776 57.41,348.987 58.302,350.688C59.479,352.932 59.241,355.658 58.726,358.045C57.794,362.372 55.236,366.321 52.714,369.874C49.406,374.534 45.561,378.805 41.298,382.611C37.257,386.219 32.989,389.583 28.485,392.595C24.732,395.105 20.886,397.5 16.834,399.502C13.955,400.924 10.97,402.274 7.812,402.943C6.941,403.128 6.071,403.313 5.2,403.5C3.621,407.094 2.366,410.834 1.591,414.687C1.237,416.448 0.869,418.206 0.492,419.962C0.123,421.68 -0.597,423.33 -1.669,424.727C-3.002,426.465 -5.175,427.355 -7.228,427.893ZM17.576,383.289C18.507,383.099 19.437,382.909 20.367,382.719C21.587,382.47 22.748,381.939 23.868,381.411C25.589,380.6 27.176,379.532 28.69,378.386C30.573,376.96 32.21,375.253 33.675,373.406C34.575,372.271 35.499,371.014 35.901,369.601C36.11,368.866 36.215,367.928 35.57,367.372C34.844,366.745 33.585,366.96 32.742,367.14C31.854,367.329 30.965,367.518 30.075,367.705C25.843,372.847 21.58,377.965 17.576,383.289ZM84.046,415.939C77.755,416.52 71.276,416.371 65.131,414.786C60.263,413.529 55.421,411.339 51.807,407.766C48.572,404.569 46.757,400.332 46.965,395.764C47.234,389.901 50.067,384.377 53.082,379.482C56.837,373.387 61.331,367.771 66.109,362.453C70.407,357.668 74.939,353.079 79.8,348.864C84.092,345.141 88.711,341.706 93.782,339.114C98.735,336.582 104.089,334.841 109.591,334.013C114.517,333.272 119.703,333.17 124.515,334.623C128.456,335.813 132.107,338.068 134.658,341.333C137.361,344.792 138.669,349.082 138.956,353.423C139.335,359.176 137.991,364.917 136.185,370.34C134.143,376.472 131.415,382.374 127.988,387.857C124.826,392.916 121.114,397.649 116.761,401.739C112.542,405.703 107.681,408.998 102.389,411.355C96.602,413.932 90.341,415.357 84.046,415.939ZM86.254,394.447C88.035,394.283 89.758,393.617 91.255,392.652C93.049,391.496 94.59,390.009 95.985,388.403C97.694,386.436 99.124,384.252 100.401,381.985C101.935,379.263 103.271,376.436 104.492,373.563C105.635,370.874 106.696,368.136 107.432,365.305C107.938,363.358 108.325,361.329 108.179,359.308C108.085,358.01 107.757,356.653 106.762,355.739C105.815,354.869 104.42,354.738 103.199,354.885C101.509,355.088 99.896,355.805 98.477,356.722C96.652,357.901 95.055,359.387 93.582,360.976C91.75,362.952 90.118,365.1 88.622,367.339C86.846,369.995 85.268,372.779 83.871,375.652C82.588,378.293 81.428,381.024 80.714,383.879C80.227,385.823 79.917,387.878 80.272,389.872C80.521,391.272 81.121,392.596 82.272,393.48C83.395,394.342 84.874,394.573 86.254,394.447ZM156.17,407.647C152.778,407.999 148.813,408.473 145.552,407.116C143.908,406.432 142.303,405.192 141.983,403.336C141.695,401.667 141.692,399.955 141.944,398.281C144.981,378.05 153.847,359.171 156.38,338.844C156.599,337.086 156.963,335.347 157.444,333.642C157.975,331.758 159.307,330.175 160.842,329.007C163.417,327.049 166.796,326.474 169.909,326.011C175.435,325.187 180.96,324.359 186.485,323.526C190.346,322.944 194.289,323.128 198.137,323.733C202.128,324.361 206.084,325.635 209.494,327.839C212.57,329.827 214.916,332.772 216.246,336.179C217.861,340.318 217.601,344.901 216.759,349.181C215.804,354.032 213.96,358.683 211.294,362.848C208.796,366.752 205.785,370.334 202.234,373.322C198.831,376.185 195.047,378.619 190.953,380.368C187.005,382.054 182.816,383.211 178.546,383.685C177.102,383.845 175.659,384.004 174.215,384.161C173.462,387.856 172.79,391.569 172.265,395.304C172.02,397.046 171.59,398.762 171.004,400.421C170.315,402.372 168.657,403.861 166.931,404.909C163.746,406.842 159.79,407.273 156.17,407.647ZM178.943,363.117C180.393,362.948 181.842,362.778 183.291,362.607C184.936,362.412 186.532,361.898 188.073,361.303C189.932,360.585 191.646,359.496 193.102,358.136C194.625,356.715 195.553,354.819 195.889,352.77C196.126,351.326 195.942,349.795 195.086,348.575C194.227,347.351 192.919,346.512 191.521,346.03C189.787,345.432 187.89,345.402 186.088,345.636C184.749,345.81 183.409,345.984 182.07,346.156C181.318,351.859 180.188,357.504 178.943,363.117ZM223.106,369.052C221.953,369.356 219.897,369.92 218.898,368.881C218.113,368.065 218.069,366.854 218.236,365.799C218.47,364.324 218.805,362.867 219.202,361.427C222.344,350.017 224.781,338.308 224.696,326.42C224.684,324.783 224.723,323.145 224.814,321.509C224.901,319.96 225.331,318.423 226.133,317.09C227.055,315.557 228.756,314.684 230.41,314.171C231.793,313.742 233.621,313.379 234.838,314.427C235.896,315.339 236.458,316.662 236.717,318.008C237.024,319.606 237.195,321.23 237.235,322.857C237.53,334.78 235.356,346.556 232.371,358.051C231.971,359.591 231.474,361.105 230.885,362.583C230.295,364.061 229.362,365.392 228.209,366.485C226.81,367.812 224.943,368.566 223.106,369.052ZM215.138,397.436C213.621,397.843 211.279,398.113 210.424,396.413C209.184,393.951 210.369,390.656 211.036,388.248C211.69,385.89 212.498,383.57 213.686,381.423C214.546,379.868 215.616,378.413 217.031,377.32C218.294,376.343 219.775,375.649 221.317,375.243C222.8,374.853 225.122,374.617 225.886,376.336C227.01,378.865 225.729,382.162 225.047,384.605C224.41,386.889 223.666,389.151 222.568,391.259C221.768,392.795 220.75,394.24 219.389,395.33C218.145,396.326 216.672,397.024 215.138,397.436Z" style="fill:none;stroke:white;stroke-width:2px;"/>
                                    </g>
                                </g>
                                <path d="M65.959,344.041C108.148,387.676 161.398,430.142 251.733,468.685L250.082,419.653L227.696,384.626L76.479,336.161L65.959,344.041Z" style="fill-opacity:0.05;"/>
                                <g transform="matrix(1.13799,6.3171e-17,0,1,-6.61819,6.22592)">
                                    <path d="M53.466,450.023C61.852,452.252 93.082,442.62 93.082,442.62L81.026,451.812L70.306,458.835L66.838,466.14L52.712,462.805C52.712,462.805 45.079,447.794 53.466,450.023Z" style="fill:rgb(192,192,192);fill-rule:nonzero;"/>
                                </g>
                                <g transform="matrix(1,5.55112e-17,0,1,-4.02652,0.335539)">
                                    <path d="M87.621,469.476L104.063,463.101L105.405,472.16L94.164,473.167L87.621,469.476Z" style="fill:rgb(192,192,192);fill-rule:nonzero;"/>
                                </g>
                                <g transform="matrix(-1.06495,0.401131,0.352491,0.935815,134.809,-209.482)">
                                    <path d="M53.466,450.023C61.852,452.252 93.082,442.62 93.082,442.62L81.026,451.812L70.306,458.835L66.838,466.14L52.712,462.805C52.712,462.805 45.079,447.794 53.466,450.023Z" style="fill:rgb(192,192,192);fill-rule:nonzero;"/>
                                </g>
                            </g>
                        </g>
                    </g>
                    <g transform="matrix(1.09555,-5.83757e-17,0,0.959886,306.709,250.86)">
                        <path d="M87.259,225.599C96.689,220.152 107.454,214.8 119.099,209.904C156.311,194.259 190.566,188.289 203.023,194.393L203.023,529.034C188.496,532.175 170.251,534.046 150.447,534.046C125.455,534.046 102.944,531.066 87.259,526.316L87.259,225.599Z" style="fill:url(#_Linear6);"/>
                    </g>
                </g>
            </g>
        </g>
    </g>
    <defs>
        <linearGradient id="_Linear6" x1="0" y1="0" x2="1" y2="0" gradientUnits="userSpaceOnUse" gradientTransform="matrix(-84.1833,2.14308,-1.83505,-72.0836,173.674,354.579)"><stop offset="0" style="stop-color:white;stop-opacity:0"/><stop offset="0.24" style="stop-color:white;stop-opacity:0.27451"/><stop offset="0.5" style="stop-color:white;stop-opacity:0.356863"/><stop offset="0.77" style="stop-color:white;stop-opacity:0.280392"/><stop offset="1" style="stop-color:white;stop-opacity:0"/></linearGradient>
    </defs>
</svg>
