<?xml version="1.0" encoding="UTF-8" standalone="no"?>
<!DOCTYPE svg PUBLIC "-//W3C//DTD SVG 1.1//EN" "http://www.w3.org/Graphics/SVG/1.1/DTD/svg11.dtd">
<svg width="100%" height="100%" viewBox="0 0 674 190" version="1.1" xmlns="http://www.w3.org/2000/svg" xmlns:xlink="http://www.w3.org/1999/xlink" xml:space="preserve" xmlns:serif="http://www.serif.com/" style="fill-rule:evenodd;clip-rule:evenodd;stroke-linejoin:round;stroke-miterlimit:2;">
    <g transform="matrix(1,0,0,1,-175.445,-393.167)">
        <g transform="matrix(1,0,0,1,135.629,352.802)">
            <g id="SYLVESTER">
                <g id="S">
                    <g id="wood">
                        <path d="M103.453,114.234C103.453,114.234 134.508,122.203 141.512,124.25C146.168,125.611 149.137,126.945 150.684,127.738L159.436,118.985L160.434,119.229C160.434,119.229 164.897,120.245 166.719,125.391L167.087,126.431L166.337,127.24C164.332,129.402 162.232,131.474 160.842,132.815C164.506,135.567 172.697,142.167 175.639,148.201L175.791,148.513L175.818,148.858C176.283,154.827 178.246,164.415 178.246,164.415L178.542,165.866L167.699,170.548L167.22,168.396C167.22,168.396 164.841,157.633 164.589,152.548C162.362,149.382 159.36,146.029 149.957,139.496L149.955,139.494C138.376,131.4 103.705,125.799 103.705,125.799L102.36,125.579L100.858,113.568L103.453,114.234Z" style="fill:rgb(249,244,223);"/>
                        <g transform="matrix(0.586967,-0.809611,0.809611,0.586967,-79.6759,104.316)">
                            <path d="M98.952,123.673C98.952,123.673 111.95,115.473 134.903,120.779C139.63,121.871 151.059,127.893 152.606,128.686L160.772,119.123C160.772,119.123 163.61,118.501 165.65,121.313C167.102,123.314 167.369,125.256 167.369,125.256C165.364,127.418 162.232,131.474 160.842,132.815C164.506,135.567 172.697,142.167 175.639,148.201L175.791,148.513L175.818,148.858C171.041,169.744 164.32,184.392 164.32,184.392L164.617,185.844L153.773,190.525L153.295,188.373C153.295,188.373 151.138,176.214 163.921,156.738C159.205,146.73 150.479,141.231 150.479,141.231C121.047,123.846 99.205,135.238 99.205,135.238L97.859,135.018L96.358,123.007L98.952,123.673Z" style="fill:rgb(249,244,223);"/>
                        </g>
                        <g transform="matrix(-0.94103,0.338323,-0.338323,-0.94103,292.852,274.461)">
                            <path d="M84.564,127.89C85.54,128.14 113.053,117.25 128.316,118.729C132.084,119.094 140.205,121.344 143.641,122.877C146.356,124.088 148.99,125.547 151.42,127.263C154.146,124.456 156.878,121.655 159.621,118.866C159.929,118.964 160.239,119.061 160.548,119.155C163.432,119.977 165.745,122.641 166.719,125.391C166.842,125.738 166.964,126.085 167.087,126.431C166.837,126.701 166.587,126.97 166.337,127.24C164.563,129.153 162.72,131.004 160.842,132.815C166.347,136.951 172.551,141.867 175.639,148.201L175.791,148.513L175.818,148.858C176.225,154.082 177.196,159.288 178.246,164.415C178.345,164.899 178.444,165.382 178.542,165.866C174.928,167.427 171.313,168.987 167.699,170.548C167.539,169.831 167.38,169.113 167.22,168.396C166.076,163.222 164.852,157.863 164.589,152.548C160.787,147.141 155.233,143.552 150.315,139.265L150.313,139.264C144.391,134.069 134.925,128.352 126.888,128.577C114.279,128.929 88.401,138.402 87.681,138.541C86.079,135.18 85.026,131.585 84.564,127.89Z" style="fill:rgb(249,244,223);"/>
                        </g>
                    </g>
                    <g id="leaves">
                        <g id="top_leaves">
                            <g transform="matrix(0.933554,-0.673893,0.643986,0.892124,-62.6925,23.3414)">
                                <path d="M62.5,107C62.5,107 52,121.009 52,127.012C52,133.077 56.705,138 62.5,138C68.295,138 73,133.077 73,127.012C73,121.009 62.5,107 62.5,107Z" style="fill:rgb(71,201,40);"/>
                            </g>
                            <g transform="matrix(0.374214,-0.99527,0.99142,0.372766,-54.5388,74.1794)">
                                <path d="M62.5,107C62.5,107 52,121.321 52,127.459C52,133.277 56.705,138 62.5,138C68.295,138 73,133.277 73,127.459C73,121.321 62.5,107 62.5,107Z" style="fill:rgb(71,201,40);"/>
                            </g>
                            <g transform="matrix(0.877722,-0.0796402,0.069644,0.767553,41.1975,-36.7854)">
                                <path d="M62.5,107C62.5,107 52,120.295 52,125.993C52,132.62 56.705,138 62.5,138C68.295,138 73,132.62 73,125.993C73,120.295 62.5,107 62.5,107Z" style="fill:rgb(71,201,40);"/>
                            </g>
                            <g transform="matrix(0.250432,0.844998,-0.844998,0.250432,258.667,-6.42715)">
                                <path d="M62.5,107C62.5,107 52,121.35 52,127.5C52,133.295 56.705,138 62.5,138C68.295,138 73,133.295 73,127.5C73,121.35 62.5,107 62.5,107Z" style="fill:rgb(71,201,40);"/>
                            </g>
                            <g transform="matrix(-0.783415,0.403732,-0.403732,-0.783415,268.824,167.482)">
                                <path d="M62.5,107C62.5,107 52,121.35 52,127.5C52,133.295 56.705,138 62.5,138C68.295,138 73,133.295 73,127.5C73,121.35 62.5,107 62.5,107Z" style="fill:rgb(71,201,40);"/>
                            </g>
                            <g transform="matrix(0.0305023,-0.8808,0.8808,0.0305023,47.519,138.823)">
                                <path d="M62.5,107C62.5,107 52,121.35 52,127.5C52,133.295 56.705,138 62.5,138C68.295,138 73,133.295 73,127.5C73,121.35 62.5,107 62.5,107Z" style="fill:rgb(71,201,40);"/>
                            </g>
                            <g transform="matrix(-0.678625,-0.562322,0.562322,-0.678625,134.628,214.497)">
                                <path d="M62.5,107C62.5,107 52,121.35 52,127.5C52,133.295 56.705,138 62.5,138C68.295,138 73,133.295 73,127.5C73,121.35 62.5,107 62.5,107Z" style="fill:rgb(71,201,40);"/>
                            </g>
                            <g transform="matrix(-0.843911,-0.699281,0.699281,-0.843911,34.3436,255.887)">
                                <path d="M62.5,107C62.5,107 52,121.35 52,127.5C52,133.295 56.705,138 62.5,138C68.295,138 73,133.295 73,127.5C73,121.35 62.5,107 62.5,107Z" style="fill:rgb(71,201,40);"/>
                            </g>
                            <g transform="matrix(-1.09546,0.0339531,-0.0339531,-1.09546,153.646,253.396)">
                                <path d="M62.5,107C62.5,107 52,121.35 52,127.5C52,133.295 56.705,138 62.5,138C68.295,138 73,133.295 73,127.5C73,121.35 62.5,107 62.5,107Z" style="fill:rgb(71,201,40);"/>
                            </g>
                            <g transform="matrix(-0.948317,0.549431,-0.549431,-0.948317,226.198,207.938)">
                                <path d="M62.5,107C62.5,107 52,121.35 52,127.5C52,133.295 56.705,138 62.5,138C68.295,138 73,133.295 73,127.5C73,121.35 62.5,107 62.5,107Z" style="fill:rgb(71,201,40);"/>
                            </g>
                            <g transform="matrix(0.419662,1.01245,-1.01245,0.419662,187.773,-6.97316)">
                                <path d="M62.5,107C62.5,107 52,121.35 52,127.5C52,133.295 56.705,138 62.5,138C68.295,138 73,133.295 73,127.5C73,121.35 62.5,107 62.5,107Z" style="fill:rgb(71,201,40);"/>
                            </g>
                            <g transform="matrix(-1.107,0.225256,-0.153478,-0.754251,201.906,145.512)">
                                <path d="M62.5,107C62.5,107 52,117.913 52,122.589C52,131.095 56.705,138 62.5,138C68.295,138 73,131.095 73,122.589C73,117.913 62.5,107 62.5,107Z" style="fill:rgb(71,201,40);"/>
                            </g>
                        </g>
                        <g id="bottom_leaves">
                            <g transform="matrix(0.283661,-1.05864,1.05864,0.283661,-91.1871,191.392)">
                                <path d="M62.5,107C62.5,107 52,121.35 52,127.5C52,133.295 56.705,138 62.5,138C68.295,138 73,133.295 73,127.5C73,121.35 62.5,107 62.5,107Z" style="fill:rgb(71,201,40);"/>
                            </g>
                            <g transform="matrix(0.243012,1.0687,-1.0687,0.243012,196.344,70.1384)">
                                <path d="M62.5,107C62.5,107 52,121.35 52,127.5C52,133.295 56.705,138 62.5,138C68.295,138 73,133.295 73,127.5C73,121.35 62.5,107 62.5,107Z" style="fill:rgb(71,201,40);"/>
                            </g>
                            <g transform="matrix(-0.789847,-0.759816,0.759816,-0.789847,14.0115,325.277)">
                                <path d="M62.5,107C62.5,107 52,121.35 52,127.5C52,133.295 56.705,138 62.5,138C68.295,138 73,133.295 73,127.5C73,121.35 62.5,107 62.5,107Z" style="fill:rgb(71,201,40);"/>
                            </g>
                        </g>
                        <g id="mid_leaves">
                            <g transform="matrix(0.546551,0.94998,-0.94998,0.546551,265.829,35.6999)">
                                <path d="M62.5,107C62.5,107 52,121.35 52,127.5C52,133.295 56.705,138 62.5,138C68.295,138 73,133.295 73,127.5C73,121.35 62.5,107 62.5,107Z" style="fill:rgb(71,201,40);"/>
                            </g>
                            <g transform="matrix(-0.978513,0.275825,-0.251088,-0.890757,265.429,271.758)">
                                <path d="M62.5,107C62.5,107 52,120.626 52,126.466C52,132.832 56.705,138 62.5,138C68.295,138 73,132.832 73,126.466C73,120.626 62.5,107 62.5,107Z" style="fill:rgb(71,201,40);"/>
                            </g>
                            <g transform="matrix(0.283661,-1.05864,1.05864,0.283661,8.20386,200.646)">
                                <path d="M62.5,107C62.5,107 52,121.35 52,127.5C52,133.295 56.705,138 62.5,138C68.295,138 73,133.295 73,127.5C73,121.35 62.5,107 62.5,107Z" style="fill:rgb(71,201,40);"/>
                            </g>
                        </g>
                    </g>
                </g>
                <g id="Y" transform="matrix(1,0,0,1,-16,-1.34441)">
                    <g transform="matrix(-0.788203,-0.615415,0.615415,-0.788203,248.278,322.411)">
                        <path d="M106.99,113.532C105.262,114.774 132.367,123.742 141.512,124.25C146.356,124.519 149.137,126.945 150.684,127.738L159.436,118.985L160.434,119.229C160.434,119.229 164.897,120.245 166.719,125.391L167.087,126.431L166.337,127.24C164.332,129.402 160.842,132.815 160.842,132.815C160.842,132.815 159.36,146.029 149.957,139.496L149.955,139.494L103.705,125.799L102.36,125.579L104.395,112.866L106.99,113.532Z" style="fill:rgb(249,244,223);"/>
                    </g>
                    <g transform="matrix(-0.294485,0.955656,-0.955656,-0.294485,388.714,107.115)">
                        <path d="M88.956,116.65C88.956,116.65 93.244,119.033 102.758,117.528C102.758,117.528 138.283,123.306 141.512,124.25C146.168,125.611 149.137,126.945 150.684,127.738L159.436,118.985L160.434,119.229C160.434,119.229 164.897,120.245 166.719,125.391L167.087,126.431L166.337,127.24C164.332,129.402 162.232,131.474 160.842,132.815C164.506,135.567 172.697,142.167 175.639,148.201L175.791,148.513L175.818,148.858C176.283,154.827 178.246,164.415 178.246,164.415L178.542,165.866L167.699,170.548L167.22,168.396C167.22,168.396 164.841,157.633 164.589,152.548C162.362,149.382 159.36,146.029 149.957,139.496L149.955,139.494C144.367,135.588 123.606,133.702 101.787,128.82C93.808,130.629 89.419,129.994 89.419,129.994C73.758,126.444 59.461,122.775 46.284,119.008C45.074,114.086 45.111,109.342 46.566,104.802C60.151,108.663 74.035,111.311 88.956,116.65Z" style="fill:rgb(249,244,223);"/>
                    </g>
                </g>
                <g transform="matrix(-0.201104,-0.97957,0.97957,-0.201104,178.421,278.115)">
                    <g id="L">
                        <path d="M87.399,114.289C87.399,114.289 93.244,119.033 102.758,117.528C102.758,117.528 122.383,120.982 125.745,121.098C130.594,121.266 140.455,124.213 142.15,124.599L148.469,113.954L149.495,113.944C149.495,113.944 154.071,113.826 157.108,118.363L157.722,119.279L157.195,120.248C155.787,122.838 154.264,125.365 153.248,127.008C157.478,128.77 169.468,139.831 169.468,139.831C172.924,144.719 178.616,160.449 178.616,160.449L179.066,161.861L168.784,167.673L168.078,165.584C168.078,165.584 164.533,152.989 161.712,148.75C158.369,145.18 159.36,146.029 149.957,139.496C149.957,139.496 123.606,133.702 101.787,128.82C93.808,130.629 87.862,127.632 87.862,127.632C72.201,124.083 57.904,120.414 44.727,116.647C43.517,111.725 43.554,106.981 45.009,102.441C58.594,106.302 72.478,108.95 87.399,114.289Z" style="fill:rgb(249,244,223);"/>
                    </g>
                </g>
                <g transform="matrix(1,0,0,1,-17,0)">
                    <g id="V">
                        <path d="M349.018,195.039C349.778,193.659 350.554,192.272 351.347,190.885C351.968,182.727 353.867,178.72 353.867,178.72C361.871,164.798 369.588,152.215 377.068,140.732C382.128,141.026 386.651,142.458 390.561,145.186C382.871,157.031 376.251,169.52 366.755,182.206C366.755,182.206 363.215,185.603 361.852,195.138C361.852,195.138 358.427,202.049 354.564,209.75C354.525,209.827 354.487,209.903 354.448,209.98C354.448,209.98 351.397,212.766 349.35,213.294C347.303,213.821 342.165,213.145 342.165,213.145L341.82,211.826L316.23,150.67L316.228,150.668C308.846,141.916 321.864,139.208 321.864,139.208C321.864,139.208 324.937,135.415 326.903,133.217L327.638,132.395L328.707,132.664C334.002,133.998 335.429,138.347 335.429,138.347L335.766,139.317L327.867,148.848C328.801,150.315 331.476,152.857 332.196,157.655C333.554,166.712 346.4,192.782 347.475,190.946L349.018,195.039Z" style="fill:rgb(249,244,223);"/>
                    </g>
                </g>
                <g id="E" transform="matrix(1,0,0,0.96304,-19.807,7.89335)">
                    <g transform="matrix(-0.38625,-0.922394,-0.888691,0.372137,723.329,414.549)">
                        <path d="M343.61,181.636C343.846,181.208 348.863,197.968 349.845,202.086C352.034,211.262 350.763,212.93 349.35,213.294C347.303,213.821 342.165,213.145 342.165,213.145L341.82,211.826L320.223,157.23L320.221,157.228C312.84,148.476 325.858,145.767 325.858,145.767C325.858,145.767 328.931,141.974 330.896,139.776L331.631,138.954L332.701,139.224C337.995,140.558 339.423,144.907 339.423,144.907L339.759,145.877L331.861,155.408C332.794,156.874 335.469,159.417 336.189,164.215C337.548,173.272 343.61,181.636 343.61,181.636Z" style="fill:rgb(249,244,223);"/>
                    </g>
                    <g transform="matrix(1,0,0,1,-6,11.3137)">
                        <path d="M416.036,130.546L424.67,126.895L421.538,122.954C421.621,121.516 425.318,118.747 427.779,118.982L431.687,123.644L437.5,121.081L454.698,123.081L472.825,135.379L473.58,140.71L468.582,146.304L445.462,132.546L426.168,138.686C426.168,138.686 420.017,146.054 415,156C414.768,166.066 426.968,189.464 426.968,189.464L448.273,189.67L461,183.349L464.207,174.114C464.207,174.114 472.85,173.687 476.207,178.114C474.297,184.829 472,191.349 472,191.349L454.483,202.249L422,200C422,200 408.372,187.974 402.605,159.268C404.146,149.141 416.036,130.546 416.036,130.546Z" style="fill:rgb(249,244,223);"/>
                    </g>
                </g>
                <g id="E1" serif:id="E" transform="matrix(1,0,0,0.96304,179.189,7.89335)">
                    <g transform="matrix(-0.38625,-0.922394,-0.888691,0.372137,723.329,414.549)">
                        <path d="M349.018,195.039C349.778,193.659 351.397,212.766 349.35,213.294C347.303,213.821 342.165,213.145 342.165,213.145L341.82,211.826L328.149,179.666L323.497,162.556C316.316,157.092 321.303,152.248 321.303,152.248C321.303,152.248 328.931,141.974 330.896,139.776L331.631,138.954L332.701,139.224C337.995,140.558 339.423,144.907 339.423,144.907L339.759,145.877L331.861,155.408C332.794,156.874 339.718,169.948 340.438,174.746C341.797,183.803 349.018,195.039 349.018,195.039Z" style="fill:rgb(249,244,223);"/>
                    </g>
                    <g transform="matrix(1,0,0,1,-6,11.3137)">
                        <path d="M416.036,130.546L437.5,121.081L454.698,123.081L467.825,132.011L470.58,136.557L469.143,143.4L463.582,144.075L445.462,132.546L426.168,138.686C426.168,138.686 420.017,146.054 415,156C414.768,166.066 427.968,188.426 427.968,188.426L449.273,188.632L461,183.349L464.207,174.114C464.207,174.114 472.85,173.687 476.207,178.114C474.297,184.829 472,191.349 472,191.349L451.483,202.249L420,198.962C420,198.962 408.372,187.974 402.605,159.268C404.146,149.141 416.036,130.546 416.036,130.546Z" style="fill:rgb(249,244,223);"/>
                    </g>
                </g>
                <g id="R" transform="matrix(1,0,0,1,-22.0038,1.49918)">
                    <g transform="matrix(-0.273728,-0.961807,0.961807,-0.273728,606.944,344.865)">
                        <path d="M106.99,113.532C105.262,114.774 145.559,128.536 154.703,129.044C159.547,129.313 162.328,131.739 163.875,132.532L172.628,123.779L173.625,124.023C173.625,124.023 178.088,125.039 179.91,130.185L180.279,131.225L179.529,132.034C177.524,134.196 174.034,137.609 174.034,137.609C174.034,137.609 172.552,150.823 163.149,144.29L163.147,144.288L103.705,125.799L102.36,125.579C101.591,120.996 102.394,116.789 104.395,112.866L106.99,113.532Z" style="fill:rgb(249,244,223);"/>
                    </g>
                    <g transform="matrix(1,0,0,1,-3,1.05941)">
                        <path d="M699,156L713,139L731.201,134.493L736.572,135.552C736.572,135.552 739.625,143.493 736.572,148.459C731.74,149.692 719.575,150 719.575,150L706.761,164.392C706.761,164.392 697.861,165.269 699,156Z" style="fill:rgb(249,244,223);"/>
                    </g>
                </g>
                <g id="S1" serif:id="S" transform="matrix(1,0,0,0.973654,-13,3.65125)">
                    <path d="M514,133L526.361,136.732L546,153L537.102,162.011L530,155.268L526.461,151.701C525.839,150.905 513.516,143.699 513.516,143.699L489.6,151.505L488,158.268L481,151L485.796,139.732L514,133Z" style="fill:rgb(249,244,223);"/>
                    <path d="M487.22,146.134L500,170.027L533,172L546,188C546,188 540.117,197.394 535,198C533.296,196.893 532.457,192.783 532.457,192.783L526,182L514,182.263L512,189C510.349,189.756 507.394,189.379 506,188L507.81,180.848L495.124,180.358L490.556,176.725L477,152.518C477,152.518 480.143,145.765 487.22,146.134Z" style="fill:rgb(249,244,223);"/>
                    <g transform="matrix(0.981167,0.193162,-0.193162,0.981167,388.98,52.9687)">
                        <path d="M118.298,118.451C116.57,119.693 132.367,123.742 141.512,124.25C146.356,124.519 149.137,126.945 150.684,127.738L159.436,118.985L160.434,119.229C160.434,119.229 164.897,120.245 166.719,125.391L167.087,126.431L166.337,127.24C164.332,129.402 160.842,132.815 160.842,132.815C160.842,132.815 159.36,146.029 149.957,139.496L149.955,139.494L115.013,130.719L113.668,130.498L115.703,117.786L118.298,118.451Z" style="fill:rgb(249,244,223);"/>
                    </g>
                    <path d="M534,190.885L524,203L525.86,206.232L536,193L534,190.885Z" style="fill:rgb(249,244,223);"/>
                </g>
                <g transform="matrix(-0.217909,-0.975969,0.975969,-0.217909,461.325,330.582)">
                    <g id="T">
                        <path d="M91.254,121.568C87.748,112 94.444,106.948 94.444,106.948C94.444,106.948 118.458,117.812 122.09,118.873C123.47,119.277 132.204,120.15 132.204,120.15C132.204,120.15 166.604,129.02 168.227,129.285L170.471,114.024L171.785,113.93C171.785,113.93 177.641,113.416 182.172,117.738L182.153,121.401C181.806,125.111 182.561,129.03 181.388,131.216C186.949,133.139 203.059,136.867 203.059,136.867L195.986,150.818C195.986,150.818 186.303,147.936 178.676,145.611L177.432,157.65C172.842,159.452 168.667,159.458 164.825,158.027L166.352,142.145C162.018,140.81 132.885,130.311 132.885,130.311L121.141,129.451C121.141,129.451 99.761,123.471 91.254,121.568Z" style="fill:rgb(249,244,223);"/>
                    </g>
                </g>
            </g>
        </g>
        <g transform="matrix(2.86124,0,-1.11022e-16,2.86124,-910.74,94.829)">
            <g>
                <g transform="matrix(12,0,0,12,477.799,129.573)">
                    <path d="M0.122,0.01C0.102,0.01 0.089,0.007 0.08,0.002C0.071,-0.004 0.066,-0.011 0.064,-0.021C0.061,-0.03 0.06,-0.04 0.06,-0.051L0.06,-0.628C0.06,-0.639 0.061,-0.65 0.063,-0.659C0.065,-0.668 0.071,-0.675 0.079,-0.681C0.088,-0.686 0.101,-0.689 0.121,-0.689C0.139,-0.689 0.153,-0.686 0.162,-0.681C0.17,-0.675 0.175,-0.668 0.178,-0.659C0.18,-0.65 0.181,-0.639 0.181,-0.628L0.181,-0.098L0.486,-0.098C0.496,-0.098 0.505,-0.097 0.513,-0.095C0.521,-0.093 0.527,-0.089 0.532,-0.081C0.537,-0.073 0.539,-0.061 0.539,-0.045C0.539,-0.028 0.537,-0.016 0.532,-0.008C0.527,-0 0.521,0.005 0.513,0.007C0.505,0.009 0.496,0.01 0.486,0.01L0.122,0.01Z" style="fill:rgb(249,244,223);fill-rule:nonzero;"/>
                </g>
                <g transform="matrix(12,0,0,12,484.447,129.573)">
                    <path d="M0.29,0.017C0.247,0.017 0.209,0.009 0.176,-0.005C0.144,-0.019 0.117,-0.038 0.095,-0.062C0.074,-0.086 0.057,-0.114 0.047,-0.144C0.035,-0.174 0.03,-0.206 0.03,-0.239C0.03,-0.287 0.041,-0.329 0.063,-0.367C0.085,-0.404 0.116,-0.433 0.155,-0.455C0.194,-0.476 0.238,-0.487 0.289,-0.487C0.325,-0.487 0.356,-0.481 0.384,-0.47C0.411,-0.459 0.434,-0.444 0.452,-0.426C0.471,-0.407 0.485,-0.387 0.494,-0.365C0.504,-0.343 0.509,-0.322 0.509,-0.301C0.509,-0.265 0.5,-0.24 0.483,-0.224C0.466,-0.208 0.445,-0.2 0.42,-0.2L0.156,-0.2C0.157,-0.177 0.164,-0.157 0.178,-0.141C0.191,-0.124 0.208,-0.112 0.229,-0.103C0.25,-0.093 0.272,-0.089 0.294,-0.089C0.311,-0.089 0.325,-0.09 0.338,-0.092C0.351,-0.094 0.362,-0.096 0.372,-0.099C0.381,-0.102 0.389,-0.106 0.396,-0.109C0.403,-0.112 0.41,-0.115 0.416,-0.118C0.422,-0.12 0.427,-0.122 0.433,-0.123C0.44,-0.124 0.448,-0.122 0.455,-0.118C0.462,-0.114 0.468,-0.107 0.473,-0.097C0.477,-0.09 0.48,-0.084 0.482,-0.079C0.483,-0.073 0.484,-0.067 0.484,-0.062C0.484,-0.049 0.476,-0.036 0.46,-0.024C0.444,-0.012 0.421,-0.003 0.392,0.005C0.363,0.013 0.329,0.017 0.29,0.017ZM0.156,-0.271L0.361,-0.271C0.372,-0.271 0.381,-0.273 0.387,-0.276C0.393,-0.28 0.396,-0.288 0.396,-0.3C0.396,-0.315 0.391,-0.329 0.382,-0.341C0.372,-0.353 0.36,-0.363 0.344,-0.37C0.328,-0.377 0.309,-0.381 0.288,-0.381C0.263,-0.381 0.241,-0.376 0.221,-0.366C0.201,-0.356 0.185,-0.343 0.173,-0.327C0.162,-0.31 0.156,-0.291 0.156,-0.271Z" style="fill:rgb(249,244,223);fill-rule:nonzero;"/>
                </g>
                <g transform="matrix(12,0,0,12,494.071,129.573)">
                    <path d="M0.275,0.013C0.261,0.013 0.249,0.01 0.24,0.006C0.231,0.001 0.223,-0.007 0.218,-0.018L0.036,-0.399C0.026,-0.419 0.023,-0.435 0.028,-0.447C0.032,-0.459 0.044,-0.469 0.064,-0.479C0.084,-0.489 0.1,-0.492 0.112,-0.489C0.124,-0.486 0.135,-0.473 0.144,-0.452L0.275,-0.145L0.404,-0.446C0.413,-0.468 0.424,-0.481 0.436,-0.487C0.448,-0.493 0.465,-0.49 0.488,-0.479C0.51,-0.468 0.522,-0.455 0.524,-0.441C0.525,-0.427 0.522,-0.412 0.513,-0.395L0.332,-0.018C0.327,-0.008 0.319,0 0.31,0.005C0.301,0.01 0.289,0.013 0.275,0.013Z" style="fill:rgb(249,244,223);fill-rule:nonzero;"/>
                </g>
                <g transform="matrix(12,0,0,12,499.999,129.573)">
                    <path d="M0.282,0.017C0.25,0.017 0.218,0.01 0.188,-0.002C0.158,-0.015 0.13,-0.032 0.106,-0.055C0.082,-0.077 0.062,-0.104 0.048,-0.135C0.034,-0.166 0.027,-0.199 0.027,-0.236C0.027,-0.271 0.034,-0.304 0.047,-0.335C0.06,-0.365 0.078,-0.392 0.102,-0.416C0.125,-0.439 0.152,-0.457 0.182,-0.47C0.212,-0.483 0.245,-0.49 0.28,-0.49C0.327,-0.49 0.369,-0.479 0.407,-0.457C0.445,-0.434 0.475,-0.404 0.498,-0.366C0.521,-0.328 0.532,-0.285 0.532,-0.237C0.532,-0.199 0.525,-0.164 0.511,-0.133C0.497,-0.102 0.478,-0.075 0.454,-0.053C0.43,-0.031 0.403,-0.014 0.373,-0.002C0.343,0.011 0.313,0.017 0.282,0.017ZM0.28,-0.102C0.302,-0.102 0.323,-0.108 0.343,-0.119C0.363,-0.13 0.38,-0.145 0.393,-0.166C0.406,-0.186 0.413,-0.211 0.413,-0.239C0.413,-0.265 0.407,-0.288 0.395,-0.308C0.384,-0.328 0.368,-0.344 0.348,-0.355C0.328,-0.366 0.305,-0.372 0.279,-0.372C0.254,-0.372 0.232,-0.366 0.212,-0.354C0.192,-0.342 0.176,-0.326 0.164,-0.306C0.152,-0.286 0.147,-0.263 0.147,-0.238C0.147,-0.21 0.153,-0.185 0.166,-0.165C0.179,-0.145 0.195,-0.129 0.216,-0.118C0.236,-0.107 0.257,-0.102 0.28,-0.102Z" style="fill:rgb(249,244,223);fill-rule:nonzero;"/>
                </g>
                <g transform="matrix(12,0,0,12,506.359,129.573)">
                    <path d="M0.176,0.208C0.155,0.198 0.142,0.188 0.139,0.176C0.135,0.164 0.138,0.149 0.148,0.129L0.406,-0.449C0.415,-0.47 0.425,-0.483 0.436,-0.487C0.447,-0.491 0.463,-0.489 0.485,-0.48C0.505,-0.47 0.518,-0.46 0.521,-0.449C0.525,-0.437 0.522,-0.422 0.514,-0.403L0.254,0.179C0.245,0.2 0.235,0.212 0.225,0.216C0.214,0.22 0.198,0.217 0.176,0.208ZM0.269,-0.038L0.038,-0.393C0.026,-0.411 0.021,-0.426 0.024,-0.438C0.026,-0.45 0.036,-0.461 0.055,-0.473C0.075,-0.486 0.091,-0.491 0.103,-0.488C0.115,-0.485 0.127,-0.474 0.139,-0.456L0.322,-0.171L0.269,-0.038Z" style="fill:rgb(249,244,223);fill-rule:nonzero;"/>
                </g>
                <g transform="matrix(12,0,0,12,512.467,129.573)">
                    <path d="M0.462,0.009C0.442,0.009 0.428,0.005 0.419,-0.003C0.41,-0.01 0.405,-0.02 0.405,-0.033L0.412,-0.066C0.406,-0.057 0.397,-0.047 0.385,-0.036C0.372,-0.024 0.355,-0.014 0.335,-0.005C0.314,0.005 0.289,0.009 0.26,0.009C0.229,0.009 0.199,0.003 0.172,-0.011C0.144,-0.023 0.119,-0.042 0.098,-0.065C0.077,-0.088 0.06,-0.114 0.048,-0.144C0.036,-0.173 0.03,-0.205 0.03,-0.239C0.03,-0.271 0.036,-0.302 0.048,-0.331C0.06,-0.36 0.077,-0.386 0.099,-0.409C0.12,-0.432 0.145,-0.45 0.172,-0.463C0.2,-0.475 0.229,-0.482 0.26,-0.482C0.287,-0.482 0.31,-0.478 0.329,-0.471C0.348,-0.464 0.364,-0.455 0.378,-0.444C0.391,-0.432 0.402,-0.421 0.411,-0.409L0.405,-0.438C0.405,-0.452 0.409,-0.464 0.419,-0.471C0.428,-0.479 0.443,-0.483 0.463,-0.483C0.481,-0.483 0.495,-0.48 0.503,-0.474C0.51,-0.468 0.516,-0.461 0.518,-0.451C0.52,-0.441 0.521,-0.431 0.521,-0.419L0.521,-0.053C0.521,-0.042 0.52,-0.031 0.518,-0.022C0.516,-0.012 0.51,-0.005 0.502,0.001C0.494,0.006 0.481,0.009 0.462,0.009ZM0.278,-0.108C0.3,-0.108 0.321,-0.113 0.339,-0.125C0.357,-0.136 0.371,-0.152 0.382,-0.171C0.393,-0.191 0.399,-0.213 0.399,-0.237C0.399,-0.263 0.393,-0.285 0.382,-0.305C0.371,-0.324 0.356,-0.339 0.337,-0.35C0.319,-0.361 0.298,-0.367 0.276,-0.367C0.251,-0.367 0.229,-0.361 0.21,-0.35C0.191,-0.338 0.175,-0.322 0.165,-0.303C0.154,-0.283 0.148,-0.261 0.148,-0.236C0.148,-0.212 0.154,-0.19 0.165,-0.171C0.176,-0.151 0.191,-0.136 0.211,-0.125C0.231,-0.113 0.253,-0.108 0.278,-0.108Z" style="fill:rgb(249,244,223);fill-rule:nonzero;"/>
                </g>
                <g transform="matrix(12,0,0,12,519.427,129.573)">
                    <path d="M0.267,0.211C0.243,0.211 0.22,0.208 0.198,0.202C0.176,0.196 0.156,0.189 0.138,0.18C0.12,0.17 0.106,0.16 0.096,0.15C0.086,0.139 0.081,0.129 0.081,0.119C0.081,0.11 0.082,0.102 0.085,0.096C0.088,0.089 0.092,0.082 0.099,0.076C0.107,0.067 0.113,0.061 0.118,0.057C0.123,0.053 0.13,0.051 0.139,0.051C0.146,0.051 0.154,0.054 0.161,0.059C0.168,0.064 0.176,0.07 0.185,0.077C0.194,0.084 0.205,0.09 0.219,0.095C0.232,0.1 0.249,0.103 0.27,0.103C0.287,0.103 0.303,0.1 0.318,0.094C0.332,0.088 0.345,0.079 0.355,0.068C0.366,0.056 0.374,0.043 0.38,0.027C0.386,0.011 0.389,-0.008 0.389,-0.028L0.388,-0.442C0.389,-0.457 0.394,-0.468 0.404,-0.475C0.413,-0.481 0.427,-0.484 0.447,-0.484C0.465,-0.484 0.478,-0.481 0.486,-0.476C0.494,-0.471 0.499,-0.464 0.501,-0.455C0.503,-0.446 0.504,-0.436 0.504,-0.426L0.504,-0.021C0.504,0.016 0.497,0.048 0.485,0.077C0.472,0.106 0.455,0.13 0.433,0.15C0.411,0.17 0.385,0.185 0.357,0.195C0.329,0.205 0.299,0.211 0.267,0.211ZM0.256,-0.003C0.225,-0.003 0.196,-0.009 0.169,-0.021C0.141,-0.033 0.118,-0.05 0.097,-0.072C0.077,-0.094 0.061,-0.119 0.049,-0.149C0.038,-0.178 0.032,-0.209 0.032,-0.243C0.032,-0.276 0.038,-0.307 0.049,-0.336C0.061,-0.365 0.077,-0.39 0.097,-0.412C0.118,-0.434 0.141,-0.451 0.169,-0.463C0.196,-0.475 0.224,-0.482 0.255,-0.482C0.285,-0.482 0.311,-0.476 0.333,-0.464C0.355,-0.453 0.374,-0.436 0.389,-0.415C0.404,-0.394 0.415,-0.368 0.422,-0.339C0.43,-0.31 0.434,-0.277 0.434,-0.242C0.434,-0.193 0.427,-0.151 0.414,-0.115C0.401,-0.079 0.381,-0.051 0.355,-0.032C0.329,-0.012 0.296,-0.003 0.256,-0.003ZM0.267,-0.116C0.289,-0.116 0.309,-0.122 0.327,-0.133C0.345,-0.143 0.359,-0.159 0.369,-0.178C0.38,-0.197 0.385,-0.219 0.385,-0.243C0.385,-0.268 0.38,-0.289 0.369,-0.308C0.359,-0.327 0.345,-0.342 0.327,-0.353C0.309,-0.363 0.288,-0.369 0.266,-0.369C0.243,-0.369 0.223,-0.363 0.205,-0.352C0.187,-0.341 0.173,-0.327 0.164,-0.308C0.154,-0.289 0.149,-0.267 0.149,-0.243C0.149,-0.218 0.154,-0.197 0.164,-0.178C0.174,-0.159 0.188,-0.143 0.206,-0.133C0.224,-0.122 0.244,-0.116 0.267,-0.116Z" style="fill:rgb(249,244,223);fill-rule:nonzero;"/>
                </g>
                <g transform="matrix(12,0,0,12,526.279,129.573)">
                    <path d="M0.29,0.017C0.247,0.017 0.209,0.009 0.176,-0.005C0.144,-0.019 0.117,-0.038 0.095,-0.062C0.074,-0.086 0.057,-0.114 0.047,-0.144C0.035,-0.174 0.03,-0.206 0.03,-0.239C0.03,-0.287 0.041,-0.329 0.063,-0.367C0.085,-0.404 0.116,-0.433 0.155,-0.455C0.194,-0.476 0.238,-0.487 0.289,-0.487C0.325,-0.487 0.356,-0.481 0.384,-0.47C0.411,-0.459 0.434,-0.444 0.452,-0.426C0.471,-0.407 0.485,-0.387 0.494,-0.365C0.504,-0.343 0.509,-0.322 0.509,-0.301C0.509,-0.265 0.5,-0.24 0.483,-0.224C0.466,-0.208 0.445,-0.2 0.42,-0.2L0.156,-0.2C0.157,-0.177 0.164,-0.157 0.178,-0.141C0.191,-0.124 0.208,-0.112 0.229,-0.103C0.25,-0.093 0.272,-0.089 0.294,-0.089C0.311,-0.089 0.325,-0.09 0.338,-0.092C0.351,-0.094 0.362,-0.096 0.372,-0.099C0.381,-0.102 0.389,-0.106 0.396,-0.109C0.403,-0.112 0.41,-0.115 0.416,-0.118C0.422,-0.12 0.427,-0.122 0.433,-0.123C0.44,-0.124 0.448,-0.122 0.455,-0.118C0.462,-0.114 0.468,-0.107 0.473,-0.097C0.477,-0.09 0.48,-0.084 0.482,-0.079C0.483,-0.073 0.484,-0.067 0.484,-0.062C0.484,-0.049 0.476,-0.036 0.46,-0.024C0.444,-0.012 0.421,-0.003 0.392,0.005C0.363,0.013 0.329,0.017 0.29,0.017ZM0.156,-0.271L0.361,-0.271C0.372,-0.271 0.381,-0.273 0.387,-0.276C0.393,-0.28 0.396,-0.288 0.396,-0.3C0.396,-0.315 0.391,-0.329 0.382,-0.341C0.372,-0.353 0.36,-0.363 0.344,-0.37C0.328,-0.377 0.309,-0.381 0.288,-0.381C0.263,-0.381 0.241,-0.376 0.221,-0.366C0.201,-0.356 0.185,-0.343 0.173,-0.327C0.162,-0.31 0.156,-0.291 0.156,-0.271Z" style="fill:rgb(249,244,223);fill-rule:nonzero;"/>
                </g>
                <g transform="matrix(12,0,0,12,535.903,129.573)">
                    <path d="M0.264,0.009C0.233,0.009 0.204,0.003 0.177,-0.01C0.15,-0.022 0.126,-0.04 0.105,-0.062C0.084,-0.085 0.067,-0.111 0.056,-0.141C0.044,-0.171 0.038,-0.204 0.038,-0.239C0.038,-0.272 0.044,-0.304 0.056,-0.333C0.067,-0.363 0.084,-0.389 0.105,-0.411C0.126,-0.433 0.15,-0.451 0.178,-0.464C0.205,-0.476 0.234,-0.483 0.264,-0.483C0.296,-0.483 0.325,-0.476 0.35,-0.464C0.375,-0.451 0.397,-0.434 0.415,-0.412C0.432,-0.389 0.446,-0.363 0.455,-0.334C0.464,-0.304 0.469,-0.272 0.47,-0.238C0.47,-0.204 0.465,-0.172 0.456,-0.142C0.447,-0.112 0.434,-0.086 0.416,-0.064C0.398,-0.041 0.377,-0.023 0.351,-0.01C0.326,0.003 0.297,0.009 0.264,0.009ZM0.28,-0.108C0.303,-0.108 0.324,-0.113 0.342,-0.124C0.36,-0.135 0.375,-0.151 0.386,-0.17C0.397,-0.189 0.403,-0.211 0.403,-0.236C0.403,-0.261 0.397,-0.284 0.386,-0.303C0.375,-0.322 0.361,-0.338 0.342,-0.349C0.324,-0.36 0.303,-0.366 0.28,-0.366C0.257,-0.366 0.236,-0.36 0.217,-0.349C0.198,-0.338 0.183,-0.323 0.172,-0.303C0.161,-0.284 0.156,-0.261 0.156,-0.236C0.156,-0.211 0.162,-0.189 0.173,-0.17C0.184,-0.151 0.199,-0.135 0.218,-0.124C0.237,-0.113 0.257,-0.108 0.28,-0.108ZM0.465,0.01C0.446,0.01 0.433,0.006 0.424,-0C0.415,-0.006 0.409,-0.017 0.407,-0.031L0.407,-0.647C0.407,-0.658 0.408,-0.668 0.41,-0.677C0.411,-0.686 0.416,-0.694 0.424,-0.699C0.432,-0.705 0.446,-0.708 0.464,-0.708C0.483,-0.708 0.497,-0.705 0.505,-0.7C0.513,-0.694 0.518,-0.687 0.521,-0.678C0.523,-0.669 0.524,-0.659 0.524,-0.648L0.524,-0.052C0.524,-0.041 0.523,-0.03 0.521,-0.021C0.519,-0.012 0.513,-0.004 0.505,0.001C0.497,0.007 0.484,0.01 0.465,0.01Z" style="fill:rgb(249,244,223);fill-rule:nonzero;"/>
                </g>
                <g transform="matrix(12,0,0,12,543.055,129.573)">
                    <path d="M0.29,0.017C0.247,0.017 0.209,0.009 0.176,-0.005C0.144,-0.019 0.117,-0.038 0.095,-0.062C0.074,-0.086 0.057,-0.114 0.047,-0.144C0.035,-0.174 0.03,-0.206 0.03,-0.239C0.03,-0.287 0.041,-0.329 0.063,-0.367C0.085,-0.404 0.116,-0.433 0.155,-0.455C0.194,-0.476 0.238,-0.487 0.289,-0.487C0.325,-0.487 0.356,-0.481 0.384,-0.47C0.411,-0.459 0.434,-0.444 0.452,-0.426C0.471,-0.407 0.485,-0.387 0.494,-0.365C0.504,-0.343 0.509,-0.322 0.509,-0.301C0.509,-0.265 0.5,-0.24 0.483,-0.224C0.466,-0.208 0.445,-0.2 0.42,-0.2L0.156,-0.2C0.157,-0.177 0.164,-0.157 0.178,-0.141C0.191,-0.124 0.208,-0.112 0.229,-0.103C0.25,-0.093 0.272,-0.089 0.294,-0.089C0.311,-0.089 0.325,-0.09 0.338,-0.092C0.351,-0.094 0.362,-0.096 0.372,-0.099C0.381,-0.102 0.389,-0.106 0.396,-0.109C0.403,-0.112 0.41,-0.115 0.416,-0.118C0.422,-0.12 0.427,-0.122 0.433,-0.123C0.44,-0.124 0.448,-0.122 0.455,-0.118C0.462,-0.114 0.468,-0.107 0.473,-0.097C0.477,-0.09 0.48,-0.084 0.482,-0.079C0.483,-0.073 0.484,-0.067 0.484,-0.062C0.484,-0.049 0.476,-0.036 0.46,-0.024C0.444,-0.012 0.421,-0.003 0.392,0.005C0.363,0.013 0.329,0.017 0.29,0.017ZM0.156,-0.271L0.361,-0.271C0.372,-0.271 0.381,-0.273 0.387,-0.276C0.393,-0.28 0.396,-0.288 0.396,-0.3C0.396,-0.315 0.391,-0.329 0.382,-0.341C0.372,-0.353 0.36,-0.363 0.344,-0.37C0.328,-0.377 0.309,-0.381 0.288,-0.381C0.263,-0.381 0.241,-0.376 0.221,-0.366C0.201,-0.356 0.185,-0.343 0.173,-0.327C0.162,-0.31 0.156,-0.291 0.156,-0.271Z" style="fill:rgb(249,244,223);fill-rule:nonzero;"/>
                </g>
            </g>
        </g>
    </g>
</svg>
