<?xml version="1.0" encoding="UTF-8" standalone="no"?>
<!DOCTYPE svg PUBLIC "-//W3C//DTD SVG 1.1//EN" "http://www.w3.org/Graphics/SVG/1.1/DTD/svg11.dtd">
<svg width="100%" height="100%" viewBox="0 0 875 191" version="1.1" xmlns="http://www.w3.org/2000/svg" xmlns:xlink="http://www.w3.org/1999/xlink" xml:space="preserve" xmlns:serif="http://www.serif.com/" style="fill-rule:evenodd;clip-rule:evenodd;stroke-linejoin:round;stroke-miterlimit:1.5;">
    <g transform="matrix(1,0,0,1,0,-89)">
        <g transform="matrix(1.01744,0,0,1.08513,0,89)">
            <rect id="Plan-de-travail1" serif:id="Plan de travail1" x="0" y="0" width="860" height="175.923" style="fill:none;"/>
            <g id="Plan-de-travail11" serif:id="Plan de travail1">
                <g transform="matrix(0.982857,0,0,0.921547,0,-82.0177)">
                    <g transform="matrix(1.15701,0,0,1.20475,-46.9442,76.625)">
                        <path d="M789.894,16.871C755.35,19.01 720.806,21.148 686.263,23.287C627.23,21.511 568.196,19.735 509.163,17.96C424.376,20.721 339.589,23.482 254.801,26.243C187.393,23.119 119.984,19.995 52.575,16.871C50.735,25.994 48.895,35.118 47.056,44.241C50.087,55.763 53.118,67.285 56.15,78.806C55.355,86.48 54.561,94.154 53.767,101.828C53.192,107.38 52.714,112.953 51.938,118.483C50.229,130.665 47.545,142.693 45.345,154.791C59.018,157.49 72.688,160.208 86.366,162.89C155.164,162.799 223.963,164.513 292.759,163.239C362.726,165.969 432.51,158.984 502.413,157.572C532.66,156.962 562.885,158.097 593.118,158.902C633.543,159.978 673.967,161.053 714.392,162.129C737.771,159.159 761.151,156.188 784.531,153.218C786.47,145.471 788.409,137.724 790.348,129.977C788.112,113.227 785.875,96.477 783.638,79.727C785.723,58.775 787.808,37.823 789.894,16.871Z" style="fill:rgb(88,59,49);"/>
                        <clipPath id="_clip1">
                            <path d="M789.894,16.871C755.35,19.01 720.806,21.148 686.263,23.287C627.23,21.511 568.196,19.735 509.163,17.96C424.376,20.721 339.589,23.482 254.801,26.243C187.393,23.119 119.984,19.995 52.575,16.871C50.735,25.994 48.895,35.118 47.056,44.241C50.087,55.763 53.118,67.285 56.15,78.806C55.355,86.48 54.561,94.154 53.767,101.828C53.192,107.38 52.714,112.953 51.938,118.483C50.229,130.665 47.545,142.693 45.345,154.791C59.018,157.49 72.688,160.208 86.366,162.89C155.164,162.799 223.963,164.513 292.759,163.239C362.726,165.969 432.51,158.984 502.413,157.572C532.66,156.962 562.885,158.097 593.118,158.902C633.543,159.978 673.967,161.053 714.392,162.129C737.771,159.159 761.151,156.188 784.531,153.218C786.47,145.471 788.409,137.724 790.348,129.977C788.112,113.227 785.875,96.477 783.638,79.727C785.723,58.775 787.808,37.823 789.894,16.871Z"/>
                        </clipPath>
                        <g clip-path="url(#_clip1)">
                            <g transform="matrix(1,0,0,0.945824,7.10543e-15,0.913985)">
                                <path d="M789.894,16.871C755.35,19.01 720.806,21.148 686.263,23.287C627.23,21.511 568.196,19.735 509.163,17.96C424.376,20.721 339.589,23.482 254.801,26.243C187.393,23.119 119.984,19.995 52.575,16.871C50.735,25.994 48.895,35.118 47.056,44.241C50.375,54.593 53.695,64.944 57.014,75.296C55.88,85.524 54.746,95.752 53.612,105.98C52.977,111.708 52.434,117.455 51.642,123.164C50.5,131.401 48.902,139.572 47.325,147.734C60.498,153.146 73.637,158.639 86.854,163.942C155.162,161.14 223.509,159.378 291.732,154.766C326.362,156.973 361.045,157.681 395.74,157.551C433.587,157.41 471.43,156.324 509.278,156.627C538.241,156.859 567.169,158.409 596.1,159.657C635.531,161.359 674.961,163.06 714.392,164.762C737.771,159.451 761.151,154.14 784.531,148.83C786.47,140.79 788.409,132.751 790.348,124.711C787.653,108.334 784.958,91.957 782.263,75.58C784.806,56.011 787.35,36.441 789.894,16.871Z" style="fill:rgb(110,80,70);"/>
                                <clipPath id="_clip2">
                                    <path d="M789.894,16.871C755.35,19.01 720.806,21.148 686.263,23.287C627.23,21.511 568.196,19.735 509.163,17.96C424.376,20.721 339.589,23.482 254.801,26.243C187.393,23.119 119.984,19.995 52.575,16.871C50.735,25.994 48.895,35.118 47.056,44.241C50.375,54.593 53.695,64.944 57.014,75.296C55.88,85.524 54.746,95.752 53.612,105.98C52.977,111.708 52.434,117.455 51.642,123.164C50.5,131.401 48.902,139.572 47.325,147.734C60.498,153.146 73.637,158.639 86.854,163.942C155.162,161.14 223.509,159.378 291.732,154.766C326.362,156.973 361.045,157.681 395.74,157.551C433.587,157.41 471.43,156.324 509.278,156.627C538.241,156.859 567.169,158.409 596.1,159.657C635.531,161.359 674.961,163.06 714.392,164.762C737.771,159.451 761.151,154.14 784.531,148.83C786.47,140.79 788.409,132.751 790.348,124.711C787.653,108.334 784.958,91.957 782.263,75.58C784.806,56.011 787.35,36.441 789.894,16.871Z"/>
                                </clipPath>
                                <g clip-path="url(#_clip2)">
                                    <g opacity="0.75">
                                        <g transform="matrix(0.864294,0,0,0.830049,47.0558,16.8707)">
                                            <path d="M860,136.264C827,138.509 794,140.755 761,143C747.56,143.696 734.092,143.997 720.637,144.196C699.367,144.511 678.085,144.387 656.824,143.649C639.974,143.064 623.128,142.1 606.345,140.466C593.164,139.183 579.992,137.527 566.993,134.966C552.295,132.072 537.294,130.713 522.362,129.732C502.61,128.435 482.802,127.976 463.011,127.876C433.29,127.726 403.565,128.452 373.874,129.754C354.647,130.597 335.413,131.6 316.223,133.07C305.615,131.124 295.004,129.184 284.367,127.409C261.955,123.669 239.464,120.404 217,117C202.441,120.823 187.63,123.784 172.874,126.726C149.506,131.383 125.928,135.352 102.131,136.948C88.614,137.854 74.994,138.02 61.496,136.725C51.078,135.725 40.663,133.848 30.784,130.327C27.078,129.006 23.33,127.798 19.543,126.73C16.713,125.931 13.86,125.21 10.985,124.587C8.699,124.091 6.399,123.658 4.086,123.305C2.387,123.046 0.681,122.829 -1.031,122.671C-2.273,122.557 -3.518,122.475 -4.765,122.434C-5.755,122.401 -6.746,122.395 -7.737,122.424C-13.001,122.575 -19.651,123.705 -21.953,129.167C-22.34,130.086 -22.579,131.063 -22.697,132.052C-22.855,133.371 -22.855,134.81 -22.548,136.109C17.319,147.754 56.58,161.238 95.933,174.484C125.035,169.15 154.051,163.375 182.98,157.171C209.864,151.405 236.665,145.263 263.512,139.326C274.969,141.506 286.41,143.758 297.844,146.054C264.363,155.701 231.094,166.006 197.328,174.648C217.957,177.015 238.59,179.35 259.24,181.525C272.777,182.95 286.318,184.387 299.891,185.43C323.821,187.271 347.812,188.203 371.809,188.497C370.479,186.058 369.944,183.017 369.775,180.272C369.645,178.162 369.777,176.036 370.165,173.957C370.472,172.318 370.937,170.708 371.549,169.157C375.804,158.383 386.408,151.919 396.8,148.046C400.338,146.728 403.965,145.654 407.629,144.749C412.008,143.667 416.444,142.825 420.901,142.144C426.633,141.268 432.403,140.657 438.184,140.217C445.056,139.693 451.945,139.411 458.835,139.288C467.559,139.131 476.287,139.228 485.009,139.492C495.988,139.824 506.959,140.421 517.916,141.204C531.633,142.184 545.33,143.455 558.997,144.984C597.458,149.289 635.954,153.353 674.557,156.164C706.255,158.472 738.115,160.091 769.899,158.866C783.19,158.354 796.447,157.271 809.649,155.652C834.174,152.642 858.495,148.173 883,145C887.863,144.37 892.723,143.71 897.572,142.981C900.463,142.547 903.351,142.089 906.229,141.575C907.862,141.284 909.492,140.975 911.114,140.627C911.632,140.515 912.15,140.4 912.665,140.278C913.006,140.198 913.345,140.115 913.684,140.028C913.984,139.951 914.284,139.871 914.582,139.787C914.843,139.713 915.104,139.637 915.363,139.555C915.586,139.485 915.809,139.412 916.029,139.333C916.614,139.124 918.686,138.335 917.29,137.664C917.139,137.591 916.982,137.533 916.823,137.481C916.567,137.397 916.306,137.33 916.043,137.27C915.57,137.162 915.091,137.079 914.611,137.006C913.824,136.886 913.033,136.796 912.242,136.718C906.442,136.145 900.583,136.068 894.76,135.992C892.878,135.967 890.996,135.953 889.114,135.945C886.612,135.935 884.11,135.938 881.609,135.95C878.185,135.967 874.761,136.001 871.338,136.049C867.559,136.103 863.779,136.166 860,136.264Z" style="fill:rgb(143,111,90);"/>
                                        </g>
                                        <g transform="matrix(-1.26233,0,0,-1.87476,811.994,315.073)">
                                            <path d="M831.928,152.325C798.928,154.57 765.928,156.816 732.928,159.061C707.411,157.085 681.927,154.358 656.519,151.293C626.332,147.651 596.179,143.409 566.315,137.656C551.234,134.751 535.871,133.294 520.566,132.184C500.813,130.751 481.006,130.073 461.206,129.721C432.719,129.214 404.219,129.424 375.734,130.04C355.82,130.471 335.897,131.034 316,132C283,127 250,122 217,117C201.396,121.098 185.505,124.306 169.634,127.171C147.112,131.238 124.358,134.371 101.497,135.684C88.06,136.456 74.546,136.607 61.124,135.493C50.953,134.65 40.747,133.099 31,130C27.229,128.801 23.434,127.674 19.61,126.654C16.582,125.847 13.536,125.107 10.468,124.467C8.054,123.963 5.625,123.521 3.183,123.171C1.27,122.897 -0.652,122.68 -2.581,122.546C-3.872,122.457 -5.166,122.405 -6.46,122.406C-7.386,122.406 -8.313,122.433 -9.237,122.495C-13.963,122.812 -20.208,124.165 -21.955,129.272C-22.218,130.039 -22.37,130.835 -22.412,131.644C-22.47,132.747 -22.372,133.953 -22,135C18.008,144.895 58.017,154.791 98.025,164.686C136.038,149.486 177.234,144.28 217.856,142.149C266.788,139.581 315.93,141.457 364.784,144.656C308.591,150.744 252.399,156.831 196.206,162.918C253.804,166.945 311.402,170.973 369,175C368.155,173.587 367.695,171.873 367.45,170.256C367.264,169.028 367.226,167.777 367.346,166.541C368.198,157.747 376.474,152.144 383.844,148.826C385.362,148.143 386.909,147.523 388.474,146.955C390.971,146.048 393.514,145.27 396.08,144.584C399.107,143.775 402.168,143.094 405.246,142.505C426.604,138.42 448.692,138.087 470.362,138.515C499.988,139.101 529.566,141.672 559,145C602.207,149.886 645.383,155.037 688.58,160.008C704.766,161.87 720.958,163.723 737.181,165.248C752.05,166.646 766.973,167.778 781.917,167.751C806.391,167.706 830.706,164.198 854.928,161.061C859.791,160.431 864.651,159.771 869.5,159.042C872.391,158.608 875.279,158.15 878.157,157.636C879.79,157.345 881.42,157.036 883.042,156.688C883.56,156.576 884.078,156.461 884.593,156.339C884.934,156.259 885.273,156.176 885.612,156.089C885.912,156.012 886.212,155.932 886.51,155.848C886.771,155.775 887.032,155.698 887.291,155.617C887.514,155.546 887.737,155.473 887.957,155.394C888.542,155.185 890.614,154.396 889.218,153.725C889.067,153.653 888.91,153.594 888.751,153.542C888.495,153.458 888.234,153.391 887.971,153.331C887.498,153.223 887.019,153.14 886.539,153.067C885.752,152.947 884.961,152.857 884.17,152.779C878.37,152.206 872.511,152.129 866.688,152.053C864.806,152.029 862.924,152.014 861.042,152.006C858.54,151.996 856.038,151.999 853.537,152.011C850.113,152.028 846.689,152.062 843.266,152.111C839.487,152.164 835.707,152.228 831.928,152.325Z" style="fill:rgb(143,111,90);"/>
                                        </g>
                                        <g transform="matrix(0.864294,0,0,0.877593,47.0558,16.8707)">
                                            <path d="M2.977,60.201C23.259,63.764 43.721,66.468 64.149,69.027C96.404,73.067 128.76,76.315 161.172,78.788C241.886,84.944 323.261,86.621 404,80C440.003,84.208 475.931,89.327 511.546,96.104C524.592,98.586 537.599,101.293 550.515,104.383C558.378,106.264 566.309,108.148 574,110.661C581.974,107.723 590.108,105.177 598.235,102.7C611.66,98.608 625.207,94.91 638.845,91.594C655.309,87.59 671.914,84.147 688.633,81.388C701.254,79.306 713.943,77.615 726.679,76.417C736.464,75.496 746.277,74.867 756.102,74.598C763.837,74.386 771.579,74.397 779.313,74.678C785.201,74.891 791.084,75.261 796.95,75.812C833.997,79.294 872.352,90.293 899.473,117.069C904.329,121.863 908.751,127.093 912.674,132.676C899.839,127.195 886.261,123.38 872.744,120.007C853.146,115.116 833.242,111.433 813.244,108.627C787.621,105.032 761.768,102.905 735.893,102.547C712.514,102.224 689.059,103.336 665.901,106.664C635.638,111.015 605.001,119.1 578.716,135.179C550.92,123.832 521.902,115.433 492.623,108.898C463.669,102.436 433.955,97.711 404.218,97.708C386.397,97.706 368.576,97.187 350.766,96.602C326.892,95.818 303.024,94.828 279.158,93.828C212.042,91.015 144.914,87.94 77.741,86.867C44.843,86.342 11.866,86.134 -21,87.903C-32.249,88.509 -43.512,89.339 -54.672,90.908C-62.18,91.964 -69.909,93.21 -77,96C-78.917,96.754 -80.835,97.504 -82.757,98.246C-83.893,98.684 -85.031,99.119 -86.17,99.546C-86.804,99.784 -87.438,100.019 -88.074,100.249C-88.736,100.488 -89.399,100.725 -90.072,100.933C-90.122,100.949 -90.666,101.146 -90.703,101.057C-90.75,100.942 -89.828,100.515 -89.824,100.513C-88.83,100 -87.813,99.53 -86.798,99.059C-84.024,97.772 -81.231,96.527 -78.436,95.287C-77.129,94.707 -75.82,94.129 -74.511,93.552C-73.077,92.921 -71.643,92.291 -70.208,91.663C-68.669,90.99 -67.129,90.317 -65.589,89.646C-42.787,79.71 -19.914,69.933 2.977,60.201Z" style="fill:rgb(143,111,90);"/>
                                        </g>
                                    </g>
                                    <g transform="matrix(0.723133,0,0,0.877593,133.587,16.8707)">
                                        <path d="M613,14.345C575.503,37.65 538.007,60.955 500.51,84.26C490.87,84.26 481.23,84.26 471.59,84.26C484.955,62.288 498.32,40.316 511.685,18.345C545.457,17.012 579.228,15.678 613,14.345Z" style="fill:rgb(110,80,70);"/>
                                    </g>
                                </g>
                            </g>
                            <g transform="matrix(0.864093,-0.017872,-0.0157035,-0.700273,26.8948,143.657)">
                                <path d="M877.312,71.885C742.219,64.646 607.126,57.407 472.033,50.169C326.53,64.013 181.026,77.857 35.523,91.702C14.682,141.468 -6.159,191.234 -27,241L975,241C942.437,184.628 909.875,128.256 877.312,71.885Z" style="fill:rgb(255,205,171);fill-opacity:0.15;"/>
                            </g>
                        </g>
                        <path d="M789.894,16.871C755.35,19.01 720.806,21.148 686.263,23.287C627.23,21.511 568.196,19.735 509.163,17.96C424.376,20.721 339.589,23.482 254.801,26.243C187.393,23.119 119.984,19.995 52.575,16.871C50.735,25.994 48.895,35.118 47.056,44.241C50.087,55.763 53.118,67.285 56.15,78.806C55.355,86.48 54.561,94.154 53.767,101.828C53.192,107.38 52.714,112.953 51.938,118.483C50.229,130.665 47.545,142.693 45.345,154.791C59.018,157.49 72.688,160.208 86.366,162.89C155.164,162.799 223.963,164.513 292.759,163.239C362.726,165.969 432.51,158.984 502.413,157.572C532.66,156.962 562.885,158.097 593.118,158.902C633.543,159.978 673.967,161.053 714.392,162.129C737.771,159.159 761.151,156.188 784.531,153.218C786.47,145.471 788.409,137.724 790.348,129.977C788.112,113.227 785.875,96.477 783.638,79.727C785.723,58.775 787.808,37.823 789.894,16.871Z" style="fill:none;stroke:rgb(249,245,222);stroke-width:5.08px;stroke-dasharray:10.16,12.7,0,0;"/>
                    </g>
                </g>
            </g>
        </g>
    </g>
</svg>
