<?xml version="1.0" encoding="UTF-8" standalone="no"?>
<!DOCTYPE svg PUBLIC "-//W3C//DTD SVG 1.1//EN" "http://www.w3.org/Graphics/SVG/1.1/DTD/svg11.dtd">
<svg width="100%" height="100%" viewBox="0 0 674 190" version="1.1" xmlns="http://www.w3.org/2000/svg" xmlns:xlink="http://www.w3.org/1999/xlink" xml:space="preserve" xmlns:serif="http://www.serif.com/" style="fill-rule:evenodd;clip-rule:evenodd;stroke-linejoin:round;stroke-miterlimit:2;">
    <g transform="matrix(1,0,0,1,-175.445,-1069.17)">
        <g transform="matrix(1,0,0,1,0,1014)">
            <g id="SYLVESTER" transform="matrix(1,0,0,1,135.629,14.8016)">
                <g id="S">
                    <g id="wood">
                        <path d="M103.453,114.234C103.453,114.234 134.508,122.203 141.512,124.25C146.168,125.611 149.137,126.945 150.684,127.738L159.436,118.985L160.434,119.229C160.434,119.229 164.897,120.245 166.719,125.391L167.087,126.431L166.337,127.24C164.332,129.402 162.232,131.474 160.842,132.815C164.506,135.567 172.697,142.167 175.639,148.201L175.791,148.513L175.818,148.858C176.283,154.827 178.246,164.415 178.246,164.415L178.542,165.866L167.699,170.548L167.22,168.396C167.22,168.396 164.841,157.633 164.589,152.548C162.362,149.382 159.36,146.029 149.957,139.496L149.955,139.494C138.376,131.4 103.705,125.799 103.705,125.799L102.36,125.579L100.858,113.568L103.453,114.234Z" style="fill:white;"/>
                        <g transform="matrix(0.461331,0.750941,-0.750941,0.461331,221.168,-49.2153)">
                            <path d="M62.5,107C62.5,107 52,121.35 52,127.5C52,133.295 56.705,138 62.5,138C68.295,138 73,133.295 73,127.5C73,121.35 62.5,107 62.5,107Z" style="fill:white;"/>
                        </g>
                        <g transform="matrix(0.586967,-0.809611,0.809611,0.586967,-79.6759,104.316)">
                            <path d="M98.952,123.673C98.952,123.673 111.95,115.473 134.903,120.779C139.63,121.871 151.059,127.893 152.606,128.686L160.772,119.123C160.772,119.123 163.61,118.501 165.65,121.313C167.102,123.314 167.369,125.256 167.369,125.256C165.364,127.418 162.232,131.474 160.842,132.815C164.506,135.567 172.697,142.167 175.639,148.201L175.791,148.513L175.818,148.858C171.041,169.744 164.32,184.392 164.32,184.392L164.617,185.844L153.773,190.525L153.295,188.373C153.295,188.373 151.138,176.214 163.921,156.738C159.205,146.73 150.479,141.231 150.479,141.231C121.047,123.846 99.205,135.238 99.205,135.238L97.859,135.018L96.358,123.007L98.952,123.673Z" style="fill:white;"/>
                        </g>
                        <g transform="matrix(-0.94103,0.338323,-0.338323,-0.94103,292.852,274.461)">
                            <path d="M84.564,127.89C85.54,128.14 113.053,117.25 128.316,118.729C132.084,119.094 140.205,121.344 143.641,122.877C146.356,124.088 148.99,125.547 151.42,127.263C154.146,124.456 156.878,121.655 159.621,118.866C159.929,118.964 160.239,119.061 160.548,119.155C163.432,119.977 165.745,122.641 166.719,125.391C166.842,125.738 166.964,126.085 167.087,126.431C166.837,126.701 166.587,126.97 166.337,127.24C164.563,129.153 162.72,131.004 160.842,132.815C166.347,136.951 172.551,141.867 175.639,148.201L175.791,148.513L175.818,148.858C176.225,154.082 177.196,159.288 178.246,164.415C178.345,164.899 178.444,165.382 178.542,165.866C174.928,167.427 171.313,168.987 167.699,170.548C167.539,169.831 167.38,169.113 167.22,168.396C166.076,163.222 164.852,157.863 164.589,152.548C160.787,147.141 155.233,143.552 150.315,139.265L150.313,139.264C144.391,134.069 134.925,128.352 126.888,128.577C114.279,128.929 88.401,138.402 87.681,138.541C86.079,135.18 85.026,131.585 84.564,127.89Z" style="fill:white;"/>
                        </g>
                    </g>
                    <g id="leaves">
                        <g id="top_leaves">
                            <g transform="matrix(0.933554,-0.673893,0.643986,0.892124,-62.6925,23.3414)">
                                <path d="M62.5,107C62.5,107 52,121.009 52,127.012C52,133.077 56.705,138 62.5,138C68.295,138 73,133.077 73,127.012C73,121.009 62.5,107 62.5,107Z" style="fill:white;"/>
                            </g>
                            <g transform="matrix(0.374214,-0.99527,0.99142,0.372766,-54.5388,74.1794)">
                                <path d="M62.5,107C62.5,107 52,121.321 52,127.459C52,133.277 56.705,138 62.5,138C68.295,138 73,133.277 73,127.459C73,121.321 62.5,107 62.5,107Z" style="fill:white;"/>
                            </g>
                            <g transform="matrix(0.877722,-0.0796402,0.069644,0.767553,41.1975,-36.7854)">
                                <path d="M62.5,107C62.5,107 52,120.295 52,125.993C52,132.62 56.705,138 62.5,138C68.295,138 73,132.62 73,125.993C73,120.295 62.5,107 62.5,107Z" style="fill:white;"/>
                            </g>
                            <g transform="matrix(0.250432,0.844998,-0.844998,0.250432,258.667,-6.42715)">
                                <path d="M62.5,107C62.5,107 52,121.35 52,127.5C52,133.295 56.705,138 62.5,138C68.295,138 73,133.295 73,127.5C73,121.35 62.5,107 62.5,107Z" style="fill:white;"/>
                            </g>
                            <g transform="matrix(-0.783415,0.403732,-0.403732,-0.783415,268.824,167.482)">
                                <path d="M62.5,107C62.5,107 52,121.35 52,127.5C52,133.295 56.705,138 62.5,138C68.295,138 73,133.295 73,127.5C73,121.35 62.5,107 62.5,107Z" style="fill:white;"/>
                            </g>
                            <g transform="matrix(0.0305023,-0.8808,0.8808,0.0305023,47.519,138.823)">
                                <path d="M62.5,107C62.5,107 52,121.35 52,127.5C52,133.295 56.705,138 62.5,138C68.295,138 73,133.295 73,127.5C73,121.35 62.5,107 62.5,107Z" style="fill:white;"/>
                            </g>
                            <g transform="matrix(-0.678625,-0.562322,0.562322,-0.678625,134.628,214.497)">
                                <path d="M62.5,107C62.5,107 52,121.35 52,127.5C52,133.295 56.705,138 62.5,138C68.295,138 73,133.295 73,127.5C73,121.35 62.5,107 62.5,107Z" style="fill:white;"/>
                            </g>
                            <g transform="matrix(-0.843911,-0.699281,0.699281,-0.843911,34.3436,255.887)">
                                <path d="M62.5,107C62.5,107 52,121.35 52,127.5C52,133.295 56.705,138 62.5,138C68.295,138 73,133.295 73,127.5C73,121.35 62.5,107 62.5,107Z" style="fill:white;"/>
                            </g>
                            <g transform="matrix(-1.09546,0.0339531,-0.0339531,-1.09546,153.646,253.396)">
                                <path d="M62.5,107C62.5,107 52,121.35 52,127.5C52,133.295 56.705,138 62.5,138C68.295,138 73,133.295 73,127.5C73,121.35 62.5,107 62.5,107Z" style="fill:white;"/>
                            </g>
                            <g transform="matrix(-0.948317,0.549431,-0.549431,-0.948317,226.198,207.938)">
                                <path d="M62.5,107C62.5,107 52,121.35 52,127.5C52,133.295 56.705,138 62.5,138C68.295,138 73,133.295 73,127.5C73,121.35 62.5,107 62.5,107Z" style="fill:white;"/>
                            </g>
                            <g transform="matrix(0.419662,1.01245,-1.01245,0.419662,187.773,-6.97316)">
                                <path d="M62.5,107C62.5,107 52,121.35 52,127.5C52,133.295 56.705,138 62.5,138C68.295,138 73,133.295 73,127.5C73,121.35 62.5,107 62.5,107Z" style="fill:white;"/>
                            </g>
                            <g transform="matrix(-1.107,0.225256,-0.153478,-0.754251,201.906,145.512)">
                                <path d="M62.5,107C62.5,107 52,117.913 52,122.589C52,131.095 56.705,138 62.5,138C68.295,138 73,131.095 73,122.589C73,117.913 62.5,107 62.5,107Z" style="fill:white;"/>
                            </g>
                        </g>
                        <g id="bottom_leaves">
                            <g transform="matrix(0.283661,-1.05864,1.05864,0.283661,-91.1871,191.392)">
                                <path d="M62.5,107C62.5,107 52,121.35 52,127.5C52,133.295 56.705,138 62.5,138C68.295,138 73,133.295 73,127.5C73,121.35 62.5,107 62.5,107Z" style="fill:white;"/>
                            </g>
                            <g transform="matrix(0.243012,1.0687,-1.0687,0.243012,196.344,70.1384)">
                                <path d="M62.5,107C62.5,107 52,121.35 52,127.5C52,133.295 56.705,138 62.5,138C68.295,138 73,133.295 73,127.5C73,121.35 62.5,107 62.5,107Z" style="fill:white;"/>
                            </g>
                            <g transform="matrix(-0.789847,-0.759816,0.759816,-0.789847,14.0115,325.277)">
                                <path d="M62.5,107C62.5,107 52,121.35 52,127.5C52,133.295 56.705,138 62.5,138C68.295,138 73,133.295 73,127.5C73,121.35 62.5,107 62.5,107Z" style="fill:white;"/>
                            </g>
                        </g>
                        <g id="mid_leaves">
                            <g transform="matrix(0.546551,0.94998,-0.94998,0.546551,265.829,35.6999)">
                                <path d="M62.5,107C62.5,107 52,121.35 52,127.5C52,133.295 56.705,138 62.5,138C68.295,138 73,133.295 73,127.5C73,121.35 62.5,107 62.5,107Z" style="fill:white;"/>
                            </g>
                            <g transform="matrix(-0.978513,0.275825,-0.251088,-0.890757,265.429,271.758)">
                                <path d="M62.5,107C62.5,107 52,120.626 52,126.466C52,132.832 56.705,138 62.5,138C68.295,138 73,132.832 73,126.466C73,120.626 62.5,107 62.5,107Z" style="fill:white;"/>
                            </g>
                            <g transform="matrix(0.283661,-1.05864,1.05864,0.283661,8.20386,200.646)">
                                <path d="M62.5,107C62.5,107 52,121.35 52,127.5C52,133.295 56.705,138 62.5,138C68.295,138 73,133.295 73,127.5C73,121.35 62.5,107 62.5,107Z" style="fill:white;"/>
                            </g>
                        </g>
                    </g>
                </g>
                <g id="Y" transform="matrix(1,0,0,1,-16,-1.34441)">
                    <g transform="matrix(-0.788203,-0.615415,0.615415,-0.788203,248.278,322.411)">
                        <path d="M106.99,113.532C105.262,114.774 132.367,123.742 141.512,124.25C146.356,124.519 149.137,126.945 150.684,127.738L159.436,118.985L160.434,119.229C160.434,119.229 164.897,120.245 166.719,125.391L167.087,126.431L166.337,127.24C164.332,129.402 160.842,132.815 160.842,132.815C160.842,132.815 159.36,146.029 149.957,139.496L149.955,139.494L103.705,125.799L102.36,125.579L104.395,112.866L106.99,113.532Z" style="fill:white;"/>
                    </g>
                    <g transform="matrix(-0.294485,0.955656,-0.955656,-0.294485,388.714,107.115)">
                        <path d="M88.956,116.65C88.956,116.65 93.244,119.033 102.758,117.528C102.758,117.528 138.283,123.306 141.512,124.25C146.168,125.611 149.137,126.945 150.684,127.738L159.436,118.985L160.434,119.229C160.434,119.229 164.897,120.245 166.719,125.391L167.087,126.431L166.337,127.24C164.332,129.402 162.232,131.474 160.842,132.815C164.506,135.567 172.697,142.167 175.639,148.201L175.791,148.513L175.818,148.858C176.283,154.827 178.246,164.415 178.246,164.415L178.542,165.866L167.699,170.548L167.22,168.396C167.22,168.396 164.841,157.633 164.589,152.548C162.362,149.382 159.36,146.029 149.957,139.496L149.955,139.494C144.367,135.588 123.606,133.702 101.787,128.82C93.808,130.629 89.419,129.994 89.419,129.994C73.758,126.444 59.461,122.775 46.284,119.008C45.074,114.086 45.111,109.342 46.566,104.802C60.151,108.663 74.035,111.311 88.956,116.65Z" style="fill:white;"/>
                    </g>
                </g>
                <g transform="matrix(-0.201104,-0.97957,0.97957,-0.201104,178.421,278.115)">
                    <g id="L">
                        <path d="M87.399,114.289C87.399,114.289 93.244,119.033 102.758,117.528C102.758,117.528 122.383,120.982 125.745,121.098C130.594,121.266 140.455,124.213 142.15,124.599L148.469,113.954L149.495,113.944C149.495,113.944 154.071,113.826 157.108,118.363L157.722,119.279L157.195,120.248C155.787,122.838 154.264,125.365 153.248,127.008C157.478,128.77 169.468,139.831 169.468,139.831C172.924,144.719 178.616,160.449 178.616,160.449L179.066,161.861L168.784,167.673L168.078,165.584C168.078,165.584 164.533,152.989 161.712,148.75C158.369,145.18 159.36,146.029 149.957,139.496C149.957,139.496 123.606,133.702 101.787,128.82C93.808,130.629 87.862,127.632 87.862,127.632C72.201,124.083 57.904,120.414 44.727,116.647C43.517,111.725 43.554,106.981 45.009,102.441C58.594,106.302 72.478,108.95 87.399,114.289Z" style="fill:white;"/>
                    </g>
                </g>
                <g transform="matrix(1,0,0,1,-17,0)">
                    <g id="V">
                        <path d="M349.018,195.039C349.778,193.659 350.554,192.272 351.347,190.885C351.968,182.727 353.867,178.72 353.867,178.72C361.871,164.798 369.588,152.215 377.068,140.732C382.128,141.026 386.651,142.458 390.561,145.186C382.871,157.031 376.251,169.52 366.755,182.206C366.755,182.206 363.215,185.603 361.852,195.138C361.852,195.138 358.427,202.049 354.564,209.75C354.525,209.827 354.487,209.903 354.448,209.98C354.448,209.98 351.397,212.766 349.35,213.294C347.303,213.821 342.165,213.145 342.165,213.145L341.82,211.826L316.23,150.67L316.228,150.668C308.846,141.916 321.864,139.208 321.864,139.208C321.864,139.208 324.937,135.415 326.903,133.217L327.638,132.395L328.707,132.664C334.002,133.998 335.429,138.347 335.429,138.347L335.766,139.317L327.867,148.848C328.801,150.315 331.476,152.857 332.196,157.655C333.554,166.712 346.4,192.782 347.475,190.946L349.018,195.039Z" style="fill:white;"/>
                    </g>
                </g>
                <g id="E" transform="matrix(1,0,0,0.96304,-19.807,7.89335)">
                    <g transform="matrix(-0.38625,-0.922394,-0.888691,0.372137,723.329,414.549)">
                        <path d="M343.61,181.636C343.846,181.208 348.863,197.968 349.845,202.086C352.034,211.262 350.763,212.93 349.35,213.294C347.303,213.821 342.165,213.145 342.165,213.145L341.82,211.826L320.223,157.23L320.221,157.228C312.84,148.476 325.858,145.767 325.858,145.767C325.858,145.767 328.931,141.974 330.896,139.776L331.631,138.954L332.701,139.224C337.995,140.558 339.423,144.907 339.423,144.907L339.759,145.877L331.861,155.408C332.794,156.874 335.469,159.417 336.189,164.215C337.548,173.272 343.61,181.636 343.61,181.636Z" style="fill:white;"/>
                    </g>
                    <g transform="matrix(1,0,0,1,-6,11.3137)">
                        <path d="M416.036,130.546L424.67,126.895L421.538,122.954C421.621,121.516 425.318,118.747 427.779,118.982L431.687,123.644L437.5,121.081L454.698,123.081L472.825,135.379L473.58,140.71L468.582,146.304L445.462,132.546L426.168,138.686C426.168,138.686 420.017,146.054 415,156C414.768,166.066 426.968,189.464 426.968,189.464L448.273,189.67L461,183.349L464.207,174.114C464.207,174.114 472.85,173.687 476.207,178.114C474.297,184.829 472,191.349 472,191.349L454.483,202.249L422,200C422,200 408.372,187.974 402.605,159.268C404.146,149.141 416.036,130.546 416.036,130.546Z" style="fill:white;"/>
                    </g>
                </g>
                <g id="E1" serif:id="E" transform="matrix(1,0,0,0.96304,179.189,7.89335)">
                    <g transform="matrix(-0.38625,-0.922394,-0.888691,0.372137,723.329,414.549)">
                        <path d="M349.018,195.039C349.778,193.659 351.397,212.766 349.35,213.294C347.303,213.821 342.165,213.145 342.165,213.145L341.82,211.826L328.149,179.666L323.497,162.556C316.316,157.092 321.303,152.248 321.303,152.248C321.303,152.248 328.931,141.974 330.896,139.776L331.631,138.954L332.701,139.224C337.995,140.558 339.423,144.907 339.423,144.907L339.759,145.877L331.861,155.408C332.794,156.874 339.718,169.948 340.438,174.746C341.797,183.803 349.018,195.039 349.018,195.039Z" style="fill:white;"/>
                    </g>
                    <g transform="matrix(1,0,0,1,-6,11.3137)">
                        <path d="M416.036,130.546L437.5,121.081L454.698,123.081L467.825,132.011L470.58,136.557L469.143,143.4L463.582,144.075L445.462,132.546L426.168,138.686C426.168,138.686 420.017,146.054 415,156C414.768,166.066 427.968,188.426 427.968,188.426L449.273,188.632L461,183.349L464.207,174.114C464.207,174.114 472.85,173.687 476.207,178.114C474.297,184.829 472,191.349 472,191.349L451.483,202.249L420,198.962C420,198.962 408.372,187.974 402.605,159.268C404.146,149.141 416.036,130.546 416.036,130.546Z" style="fill:white;"/>
                    </g>
                </g>
                <g id="R" transform="matrix(1,0,0,1,-22.0038,1.49918)">
                    <g transform="matrix(-0.273728,-0.961807,0.961807,-0.273728,606.944,344.865)">
                        <path d="M106.99,113.532C105.262,114.774 145.559,128.536 154.703,129.044C159.547,129.313 162.328,131.739 163.875,132.532L172.628,123.779L173.625,124.023C173.625,124.023 178.088,125.039 179.91,130.185L180.279,131.225L179.529,132.034C177.524,134.196 174.034,137.609 174.034,137.609C174.034,137.609 172.552,150.823 163.149,144.29L163.147,144.288L103.705,125.799L102.36,125.579C101.591,120.996 102.394,116.789 104.395,112.866L106.99,113.532Z" style="fill:white;"/>
                    </g>
                    <g transform="matrix(1,0,0,1,-3,1.05941)">
                        <path d="M699,156L713,139L731.201,134.493L736.572,135.552C736.572,135.552 739.625,143.493 736.572,148.459C731.74,149.692 719.575,150 719.575,150L706.761,164.392C706.761,164.392 697.861,165.269 699,156Z" style="fill:white;"/>
                    </g>
                </g>
                <g id="S1" serif:id="S" transform="matrix(1,0,0,0.973654,-13,3.65125)">
                    <path d="M514,133L526.361,136.732L546,153L537.102,162.011L530,155.268L526.461,151.701C525.839,150.905 513.516,143.699 513.516,143.699L489.6,151.505L488,158.268L481,151L485.796,139.732L514,133Z" style="fill:white;"/>
                    <path d="M487.22,146.134L500,170.027L533,172L546,188C546,188 540.117,197.394 535,198C533.296,196.893 532.457,192.783 532.457,192.783L526,182L514,182.263L512,189C510.349,189.756 507.394,189.379 506,188L507.81,180.848L495.124,180.358L490.556,176.725L477,152.518C477,152.518 480.143,145.765 487.22,146.134Z" style="fill:white;"/>
                    <g transform="matrix(0.981167,0.193162,-0.193162,0.981167,388.98,52.9687)">
                        <path d="M118.298,118.451C116.57,119.693 132.367,123.742 141.512,124.25C146.356,124.519 149.137,126.945 150.684,127.738L159.436,118.985L160.434,119.229C160.434,119.229 164.897,120.245 166.719,125.391L167.087,126.431L166.337,127.24C164.332,129.402 160.842,132.815 160.842,132.815C160.842,132.815 159.36,146.029 149.957,139.496L149.955,139.494L115.013,130.719L113.668,130.498L115.703,117.786L118.298,118.451Z" style="fill:white;"/>
                    </g>
                    <path d="M534,190.885L524,203L525.86,206.232L536,193L534,190.885Z" style="fill:white;"/>
                </g>
                <g transform="matrix(-0.217909,-0.975969,0.975969,-0.217909,461.325,330.582)">
                    <g id="T">
                        <path d="M91.254,121.568C87.748,112 94.444,106.948 94.444,106.948C94.444,106.948 118.458,117.812 122.09,118.873C123.47,119.277 132.204,120.15 132.204,120.15C132.204,120.15 166.604,129.02 168.227,129.285L170.471,114.024L171.785,113.93C171.785,113.93 177.641,113.416 182.172,117.738L182.153,121.401C181.806,125.111 182.561,129.03 181.388,131.216C186.949,133.139 203.059,136.867 203.059,136.867L195.986,150.818C195.986,150.818 186.303,147.936 178.676,145.611L177.432,157.65C172.842,159.452 168.667,159.458 164.825,158.027L166.352,142.145C162.018,140.81 132.885,130.311 132.885,130.311L121.141,129.451C121.141,129.451 99.761,123.471 91.254,121.568Z" style="fill:white;"/>
                    </g>
                </g>
            </g>
        </g>
    </g>
</svg>
